<?xml version="1.0" encoding="utf-8"?>
<!-- Generator: Adobe Illustrator 25.2.3, SVG Export Plug-In . SVG Version: 6.00 Build 0)  -->
<svg version="1.1" id="svg_document" xmlns="http://www.w3.org/2000/svg" xmlns:xlink="http://www.w3.org/1999/xlink" x="0px" y="0px"
	 viewBox="0 0 1800 5000" style="enable-background:new 0 0 5000 5000; fill:none;stroke:#999999;stroke-linecap:round;stroke-linejoin:round;stroke-miterlimit:10;transition:1s" xml:space="preserve">

 <style type="text/css">
 /* style removed and moved to the inline vg tag element here above, to allow to modify the color from js */
 /*	.st0{fill:none;stroke:#999999;stroke-linecap:round;stroke-linejoin:round;stroke-miterlimit:10;}*/
 </style>
 
<g>
	<path class="st0" d="M0,2109.5c28.1-2.9,56.2-4.9,84.1-9.8c57-10,105.4-35.1,146.2-76.1c35.6-35.8,70.4-72.4,109.7-104.5
		c46.5-37.9,100.5-54,158.3-64.2c94.7-16.6,148.3,38.2,191.7,108.8c25.8,41.9,41.7,89.4,70.5,129.8c13.6,19.2,26.4,38.9,40.1,58
		c29.8,41.4,39.6,88.4,39.9,138.1c0.2,40.7-0.1,81.4-1.5,122.1c-1.5,43.3,3,86.7,4.1,130.1c1.6,60.1-12.3,116.4-41.1,167.8
		c-49.8,88.8-96.8,179.1-145.6,268.5c-12.7,23.2-30.7,42.7-45.8,64.2c-39.6,56.2-31.1,97.7,19.8,138.1
		c42.4,33.6,92.5,46.7,144.2,55.9c49.7,8.8,100.3,14,146.2,38c35.6,18.6,65.7,44.4,93.8,72.4c36.8,36.5,72,74.8,108.4,111.8
		c21.1,21.4,44.4,40.2,70,56.1c51.8,32.3,101.2,22.3,150.2-7.7c22.4-13.7,44.5-28,67.5-40.9c33-18.5,68.1-23.2,104.4-25.4
		c42-2.6,81-12.1,112.3-43.8c51.7-52.4,51.6-123.6,3.9-180.4c-36.9-43.9-87.1-63.9-140.2-77.8c-99.9-26.2-145-83-158.2-180.3
		c-8.5-62.4,24.1-140.4,82.1-164.3c20.1-8.3,40.9-12.5,62.1-11.5c89.9,3.9,178-10,266.2-24.3c45.9-7.4,91.6-16.4,138.1-20.2
		c27.4-2.2,40.2,3.4,51.9,28.2c25.9,55.2,37.3,114.2,46.4,174c4.4,29.3,4,58.8,5.4,88.1c2.9,60.9,33.4,104.1,82.6,135.9
		c36.2,23.4,74.7,43.5,109.6,68.7c39.9,28.8,73.6,64.7,107,101.1c36.5,39.8,73.4,80.2,123.5,104.7c28,13.7,57.3,20.2,88.1,24.3
		c44.1,5.8,88.2,9.8,132.1,1.3c61.3-11.8,118.8-33,166.2-75.8c25.9-23.4,35-48.9,13.3-85.6c-46.6-78.8-116.1-129.4-205.3-152.7
		c-44.8-11.7-90.6-11.8-136.1-15.8c-89.8-8-148-55.6-178.4-140c-14.4-39.8-24-79.4-18-122.2c8.2-58.2,43.1-95.5,90-126.5
		c38.8-25.6,81.3-44.8,118.7-73.1c55-41.7,73.6-90.1,43.6-156.6c-16.7-36.9-34.1-73-63.7-102.3c-55.5-54.8-133.8-54.2-194.5-8
		c-40.7,31-61.1,74.2-77.9,120.3c-12.2,33.5-25.6,66.9-46.4,95.8c-31.9,44.3-77.6,65.9-131.7,70.3c-3.3,0.3-6.8-0.5-10,0.1
		c-57,11.2-64.3,2.4-88.1-52.1c-20.6-47.1-41-94.2-67.9-138.2c-44.9-73.4-112.4-97.8-194.3-91.9c-61.9,4.5-116.5,32.1-172.1,56
		c-33,14.2-66.6,22.6-102.1,8.1c-21.9-9-39.4-23.8-56.1-40c-41.6-40.6-80.5-83.8-127.9-118.4c-38.5-28.1-80-50.4-122.2-71.9
		c-22.9-11.7-45.8-23.3-66.3-39.6c-37.8-30.1-58.5-68-53.4-116.3c7.3-70.6,22.6-138.5,77.5-190.4c24.6-23.2,50.5-44.8,78.4-63.6
		c79.1-53.3,153.4-112.5,223.8-176.6c42.2-38.4,89.7-69.2,138.6-97.2c48.3-27.6,90.1-60.9,121.7-106.7
		c45.2-65.4,91.5-130.1,126.1-202.2c21.6-45.1,37.8-92.5,58.4-137.9c43.3-95.6,118.9-149.2,221.8-166.4
		c35.3-5.9,70.9-10.7,104.2-25.7c63.7-28.8,61.5-82.4,25.7-128c-22.3-28.3-54.4-38.6-89.8-40.3c-91-4.5-179,13.4-266.2,36.2
		c-47,12.3-93.8,26.1-138,46.2c-58.2,26.6-103.6,69.2-142.5,119.5c-11.8,15.2-25.6,29.2-40,42c-30.2,27-67,26.7-91.6-6
		c-38.3-50.8-54.8-111.1-67.8-172c-3.5-16.2,8.8-27.5,23.5-33.8c22.5-9.7,45.7-17.8,68.3-27.5c59.7-25.7,89.8-73.6,105.6-132.8
		c15.3-57.1,15.5-115.7,9.6-174c-2.8-27.6-15.9-52.7-31.4-76.1c-39.5-59.6-81.7-117.1-132.2-168c-34.6-34.9-74.5-48-124.2-34.7
		c-57.8,15.5-109.5,40.4-149.7,84.9c-35.4,39.2-32.1,70.4-10,111.7c18.1,33.9,42.5,63.8,65.9,94.1c62,80.6,103.4,171.6,131.2,268.5
		c9.4,32.6,7.7,49.3-33.1,58.4c-56.9,12.7-114.8,17.3-172.2,25.5c-61.1,8.8-122.7,11.8-184.2,15.4c-26.6,1.5-53.4,2.3-80,4.7
		c-57.7,5.3-102.6,32.3-136.3,79.7c-31,43.7-59.9,89.5-102,124.1c-23.5,19.3-47.5,38.1-72,56c-60.7,44.2-86.7,107.2-97.9,178.3
		c-9.4,59.7-10.2,120.1-16.4,180.1c-4.6,44.7-6.4,90-25.5,132.2c-24.4,54.1-67.1,79.1-124.3,81.8c-51.1,2.4-101.7-3.6-152.2-11.2
		c-15.7-2.4-32-2.4-47.9-4.6"/>
	<path class="st0" d="M4999.6,1519.1c-70.9-5-127.5,24.7-169.4,78.6c-40.3,51.8-93.4,60.8-150.7,52.7
		c-105.3-14.9-201.6-52.3-280.5-127.1c-14.4-13.7-30-27.1-48-35.9c-28.1-13.9-57-16.2-83.9,3.7c-69.7,51.7-106.4,129-78.6,230.2
		c13.6,49.5,31,97.9,42.7,147.9c10.5,45,17.5,90,11.7,136.1c-8.5,67.8,4.3,130.3,41.8,188.4c29.3,45.4,54.3,93.5,88.2,136
		c5.7,7.1,12,13.4,18.3,19.8c26.1,26.2,63.6,27.7,94.3,12.7c25.7-12.5,51.5-25.5,79.7-32.9c56.4-14.7,106,0.5,152.1,32.3
		c59,40.6,85.7,99.6,96.2,168.1c9,58.8,2.2,116.5-9.8,174.2c-8.8,42.4-19.2,84-36.1,124.1c-23.1,54.8-64.8,85-122.3,91.6
		c-108.9,12.5-207.7-15.5-289.6-88.3c-79.8-70.9-166.1-130.4-262.7-175.6c-83-38.9-138.1-102.5-166.4-190
		c-32.3-99.8-90.1-182.1-169.6-250.6c-67.7-58.3-100.6-133.4-100.9-223.8c-0.2-78.6-28.5-146.4-87.5-200.3
		c-15.1-13.7-30.8-26.6-45.9-40.2c-41.6-37.4-51.8-79.8-25.4-139.5c36.1-81.6,74.7-162.4,125.2-236.6
		c51.3-75.2,121.3-125,206.1-156.4c45.3-16.8,90.2-34.9,130.5-63.3c43-30.4,62.6-72.2,41.8-128.5c-17.4-46.9-39.1-90.3-83.9-118.3
		c-61.9-38.7-145.4-38-200.4,22.1c-17,18.6-33.4,37.6-47.8,58.2c-47.8,68.6-113,106-196.1,116.7c-53,6.8-101.6,28.6-135.7,71.8
		c-28.8,36.4-40.6,80.9-50.7,125.7c-16.5,73.5-23.5,148.7-39.9,222.2c-5.2,23.4-10,46.9-16.1,70c-10.5,39.7-6,79.1,2.3,118.1
		c25.2,118.6,0.6,221.5-92.1,304.4c-18.9,17-38.2,33.7-54.3,53.8c-21.9,27.2-21.8,50.5,2.2,76.1c24.2,25.9,55.2,41.9,86.1,58
		c41,21.4,83.4,39.9,118.3,71.9c45,41.3,64.7,93.5,72,152.3c3.8,30.8,0.1,61.4-0.4,92.1c-0.4,23.9,6.8,43.6,24.2,60.1
		c49.4,46.8,106,83.4,164,118.2c64.4,38.6,126.6,80.5,178.2,135.9c27.2,29.2,48.4,62.1,55.9,102.1c6.4,34,1.9,67.2-14.1,97.9
		c-12.2,23.4-31.7,27-69.8,18.3c-47.1-10.7-93.7-23.3-142-28.5c-44.7-4.8-89.5-8.2-134.1-5.2c-60.1,4.1-108.1,32.2-146.5,79.3
		c-43.3,53.1-85,107.7-137.6,152.6c-26.9,22.9-56.8,41.6-84.6,63.4c-9.8,7.7-19.3,15.5-27.6,24.6c-21.7,23.8-22.1,44.8,0,67.8
		c42.1,43.9,93.8,72,152.1,88c37.4,10.2,72.2,4.5,104.4-19.3c12.6-9.4,25.9-18.3,37.4-28.7c64.5-58.5,142.9-84.8,226.4-99.7
		c32.6-5.8,65.3-11.4,98.1-16c68.3-9.4,90.5-37.9,109.8-102.3c7.2-24.1,13.2-48.5,22.1-72c12.3-32.2,29.8-37.7,58.2-32.2
		c57.7,11.2,112.5,32.6,170,44.6c37.6,7.8,74.6,17.3,110.4,33c99.6,43.8,146,122.1,156,226.8c3.9,41.1-7.5,81.2-6.5,122.1
		c0.6,26.4,7.2,50.1,24.4,69.9c55.9,64.4,126.1,98.3,212,102.7c58.4,3,115.1,1.3,170.2-20.4c19.6-7.7,38.3-16.3,56.2-27.8
		c54.4-34.9,57.8-72,41.6-122.4c-18.8-58.3-37.5-116.4-42.1-178.2c-3.4-45.4-4.1-90.6-2.2-136.1c1.8-43.5,6.3-86.4,18.8-128
		c16.7-55.5,36.1-110.4,84-147.9c34.5-27.1,74.9-44.7,113.9-64.3c18.4-9.3,37.3-17.7,54-30"/>
	<path class="st0" d="M2207.6,2c-12.7,29.7-26.1,58.7-43.5,86.4c-34.5,55-86,74.5-146.7,77.6c-93.7,4.8-186-7.2-278.2-21.9
		c-63.7-10.2-127.3-17.4-190.3,5.5c-12.6,4.6-24.9,9.9-35.6,16.9c-29.4,19.4-34.1,49.9-16.3,87.6c14.7,31.1,35.1,59,50.6,89.8
		c23.6,47.1,35.2,96.2,35.5,148.4c0.2,42.1-1.8,84.3,4.2,126.1c11.3,79.2,40.9,104.8,122,107.6c52.7,1.8,104.6-9.6,156-19.8
		c55.6-11.1,111.5-17.9,168.2-19.9c77.6-2.7,133.6,32.7,174,96.3c34.1,53.5,59.8,111.5,87.9,168.2c15.4,31.2,37.7,52.4,72.4,57.7
		c60.6,9.4,119.6,26.6,180.1,36.4c23.7,3.8,47.4,3.5,69.9-2.7c26.4-7.3,41.3-26.8,50.7-53.3c21.6-61.3,40.3-123.5,62.5-184.7
		c29.9-82.6,88.5-127.4,169.2-149.7c45.2-12.5,90-26.2,134-42.2c95-34.7,163.6,10.5,189.3,96.5c27.8,93,13.7,184.1-31.3,269.8
		c-19.3,36.7-51.3,58.1-89.8,72.5c-52.7,19.6-108.1,28.2-162.2,41.7c-21.4,5.3-43.4,8.8-63.9,16.4c-52,19.3-78.9,41.4-66.5,113.8
		c10.7,62.1,41.2,112.8,88.8,151.5c49.9,40.6,102.6,78.2,155.9,114.2c50.3,34,92.8,23.5,127.8-31.6c33.3-52.3,50-110.6,64.1-170.1
		c7.6-32.1,14.5-64.4,23.8-96.1c18.5-63.3,60.9-101,122.1-122.6c41.6-14.7,83.9-25.9,126.2-37.9c33.9-9.6,63.1-28.5,88.3-53.6
		c23.5-23.4,44.5-48.9,66-74.1c35.3-41.3,78.7-69.4,134-71.6c47.6-1.8,93.1,11.3,136,31.7c71.4,33.9,115.8,90.7,138.5,165.8
		c6,19.8,13.3,38.9,13.9,60.1c1.2,42-16.9,71.8-52,94.4c-40.2,25.9-85.9,35.9-130.4,49.5c-57.8,17.8-116.3,35-165.7,70.7
		c-65.8,47.4-106.9,112.8-126.5,191.7c-6.8,27.5-14.8,54.7-21.9,82.1c-16,61.9-1.9,118.5,29.9,172.1c29.2,49.2,55.8,99.4,68.3,156
		c7.9,35.7,12.4,71.9,15.5,108.2c4.7,55.9,23.1,105.6,60.3,148.1c19.9,22.8,41.6,43.8,64.1,64c61.1,55.1,104.4,122.7,140.6,195.9
		c18.1,36.6,39,72.2,62,106c31.8,46.7,77,78.8,127.8,102.1c73.1,33.7,137.7,79.3,196.1,134.3c58.3,55,130,78.3,208.1,81.7
		c80.5,3.5,131.4-40.8,157.5-107.9c21.8-56,28.4-114.6,10.6-173.9c-9.5-31.8-24-61.2-46.2-85.9c-35.5-39.5-89.4-44.7-143.9-20
		c-21.7,9.8-42.9,20.9-64.1,32c-65.3,34.2-109.3,8.7-140.5-35.9c-22.1-31.7-37.9-66.4-55.7-100.3c-25.7-49-56.5-94.9-88.3-139.9
		c-41.7-59-50.3-122.2-29.7-190.3c25.7-85.1,10.4-166.3-21.9-246.3c-12.9-32.1-26.4-63.9-34.6-97.9c-11.3-46.6-5.7-89.7,16.1-132.3
		c29.5-57.4,64.3-111.8,92.6-169.9c32.2-66.1,57.8-135.1,91.9-200.2c26.2-50.1,57.7-95.9,103.9-130.3c27.1-20.2,58.1-28.7,90.3-33.6
		c51-7.8,102.1-15.7,154.1-6.4c55.6,9.9,67.4,40.2,53.7,86.1c-25.5,85.4-79.7,147-159.7,186.4c-23.6,11.6-47.4,22.9-68.3,39.7
		c-51.1,41.3-49.3,83.4-17.1,127.6c27.9,38.2,63.3,71.2,105.4,94.4c58.6,32.4,117.3,32.9,173.9-5.8c22.4-15.4,44.3-31.7,66.1-48
		c54.1-40.5,114.5-59.9,182.2-56"/>
	<path class="st0" d="M4611.4,4999.6c-18.5,2.8-30.3-11-41.6-20.6c-42.9-36.3-81.3-77.2-110.4-125.6c-26.6-44.4-23-73.1,9.7-114.1
		c22.2-27.8,50.1-49.6,78.6-69.4c63-43.8,102.8-103.9,131.4-172.8c8.2-19.8,16.4-40,18.3-61.9c4.4-49.5-18.4-85.4-56.1-114.1
		c-42.6-32.4-93.4-42.9-144.1-54.1c-59.9-13.2-120.1-25.2-176.2-51.8c-31-14.7-58.1-33.4-80.1-60.1c-27.8-33.7-28.2-71.2-5.6-110.1
		c22.6-38.9,54.1-71.2,81.8-106.2c20.1-25.4,43.1-48.6,58.3-77.9c17-32.9,16.8-52.9-8.4-77.9c-41.2-40.7-89.8-70.3-145.9-86.1
		c-22.6-6.3-45.6-4.1-63.8,11.9c-58.4,51.3-110.9,107.6-146.2,178c-15,29.9-12.2,60.1,0,90c9,22.1,20.1,43.6,27.7,66.2
		c17.4,52,6.4,98.3-33.9,135.8c-44.3,41.3-97,64.4-158,66.1c-36.6,1-69-12.9-95.8-36.2c-55.4-48.3-94-108.7-118-177.9
		c-9.6-27.7-17.9-55.9-26.9-83.8c-22.5-69.9-11.4-135.5,18.3-200.4c20.8-45.5,40.3-91.4,46.5-142c5.1-41.2,2.6-82.1-13.1-119.8
		c-19.7-47.4-56.8-57.9-113.2-43.8c-48.3,12.1-84.8,43.5-116.4,81.3c-20.3,24.2-40.7,48.4-63.8,70.3c-47.4,45-102.8,55.5-164.1,37.8
		c-47.7-13.8-89.9-40.1-134.2-61.8c-40-19.6-80.8-37.3-122-54.2c-57-23.3-114.1-18.5-172.3-4.3c-47,11.5-93.4,25.3-141.9,31.2
		c-40,4.8-78.8,2.1-118.2-2.5c-30.6-3.5-61.4-7.7-89.8-18.8c-43.6-17.1-78.1-47.7-110.6-81.2c-48.6-50.1-92.1-105.6-151.6-144.7
		c-41.3-27.2-86.2-45.5-132.3-61.7c-32.6-11.5-63.7-25.4-92.3-45.6c-41-28.9-53.5-70-55.7-116.5c-2-42.7,3.3-85.5-4-128.1
		c-12-70.6-54.9-109-128.2-112.1c-46-1.9-90.5,6.8-134,20.2c-38.9,12-78,23.4-116.3,37.4c-9.7,3.6-18.4,8-25.8,14.5
		c-17.9,15.9-19.7,42.2-4,59.8c9.4,10.6,19.2,21.3,31.9,28.1c51.9,27.7,93.2,69.3,138,106.3c35,28.9,70.6,57,100.4,91.8
		c27.2,31.7,35.8,68.9,31.3,108.2c-11.6,102.6-55.3,189.9-131.6,260.2c-27.2,25-59.7,42.1-96,39.2c-82.3-6.6-147.1,27.2-208.6,76.4
		c-40.6,32.5-73.9,67.4-84,120.5c-4.2,22.2-9.8,44.2-15.3,66.2c-16.6,65.8-48.4,122.4-100.7,165.7c-36.1,29.9-77.6,29.8-119.8,12.4
		c-50.2-20.8-101.3-34.4-156.1-20.1c-41.5,10.8-78.2,31.4-114.1,54c-13.9,8.8-26.9,19.6-44.5,22.6c-5.8-9.2-4.6-17.9,0.6-26.5
		c26.8-44.4,37-93.7,46.8-144c10.7-54.9,22-83.7,93.3-92.4c8-1,15.9-3.2,24-3.9c63.1-5.7,118.7-32.1,172-64.1
		c20.6-12.4,40.3-26.2,60.1-39.9c53.1-36.9,58.6-70.9,33.9-126c-13.3-29.7-34-54.3-55.8-78.2c-38.6-42.2-77.5-83.8-121.9-120.3
		c-50-41.1-108.2-61.6-170.4-69.2c-131.1-15.9-233.5-82.3-319.7-177.1c-29.1-32.1-29.8-55.6-0.4-91.5c14.4-17.6,30.5-33.4,47.9-48.2
		c50.2-42.6,90.6-92.9,120.3-152c28.8-57.4,65-110.5,100.2-164c35.6-54.4,53.4-113.4,54-178.3c0.4-44,3.1-88,4.3-132.1
		c2.6-94.9-24-179-82.1-254.5c-33.2-43.2-59.9-91.3-94.3-134c-23-28.5-56.3-41.5-98.5-26.5c-67.8,24.1-125,63.6-177.9,110.8
		c-18.7,16.7-37.1,33.6-56.1,50c-38.5,33.2-84.5,44.2-134,46.3c-48,2.1-96.1,1.5-144.1,1.8"/>
	<path class="st0" d="M2281.7,0c-21.3,25-33.3,55.3-47.9,84.1c-21.8,42.9-46,83.7-88.2,109.9c-30.5,18.9-64.4,27-100,28
		c-81.7,2.4-162.9-3.9-244.2-11.3c-37.4-3.4-75.1-0.9-112.2,10.8c-39.7,12.6-57.8,45.8-58,80.6c-0.2,31.2,5.1,61.6,10.2,92.1
		c8.6,51,8.4,102.8,14,154.1c9.9,90.3,61.7,117.3,142,113.3c52.6-2.6,103.9-18.1,156.2-24.8c46.4-5.9,92.4-14.1,140.2-7.1
		c59.2,8.7,102.4,40.2,137.8,85c24,30.3,44.7,63.2,68.5,93.7c46.6,59.6,110.4,87.7,184,96.1c17.3,2,34.5,5.3,52,6.4
		c45.1,2.6,77.9-17.5,104.2-52.2c25.7-34,41.5-72.8,55.7-112.2c24.1-67,70-104.5,140.2-118.8c74.8-15.2,146.2-41.3,214.7-76.5
		c62.7-32.2,109.7-17.7,161.7,39.3c44.5,48.7,56.9,109.2,64.3,172.1c6.7,55.9,2.4,112.8,15.5,168.2c7.2,30.3,27.1,56.2,70.3,56.2
		c40.9,0,78.9-14.1,118.2-21.4c76.1-14.1,125.5-63.9,171.8-119c23.9-28.5,51.8-50.1,88.2-60c26.5-7.2,53.8-6.2,80-3.2
		c73.3,8.2,144,27.5,208.1,65.5c51.3,30.5,85.4,76.9,114.3,127.8c13.4,23.7,28.7,46.2,49.8,64.2c23.1,19.7,46,23,74.2,10
		c32.7-15.2,59.8-38.6,87.8-60.4c24.9-19.5,48.8-40.4,70.3-63.8c25-27.2,24.9-46.1-2.1-71.9c-39-37.3-85.8-63.5-132.1-90
		c-74.7-42.7-141.3-95.9-206.5-151.8c-62.2-53.3-123.6-108.3-195.8-148.5c-42.3-23.6-87.7-41-132.2-59.9
		c-57.5-24.4-111.8-55.4-169.9-78.5c-85.6-33.9-173.5-54.7-266.2-47.7c-41.1,3.1-81.9,10.8-122,20.1
		c-62.8,14.6-123.6,5.8-184.2-10.4c-61.4-16.5-123.8-19.8-186.1-9.4c-66.2,11.1-97.2,37.3-114.3,107.5
		c-8.4,34.7-13.8,70.3-25.9,104.1c-13.4,37.7-36.3,65.9-78.1,71.7c-22.6,3.1-45.6-2.1-65.8-12c-50.1-24.6-99.3-50.9-142.5-87.4
		c-43.4-36.7-44.1-88.7-4-128.5c26.9-26.8,59.6-44.2,92.3-61.7c27.4-14.6,54.9-29,82.1-44c69.5-38.4,67.6-120,37.2-173.9
		c-12.6-22.3-31.5-41.8-55.3-54.4"/>
	<path class="st0" d="M3646.7,4999.6c23-6.7,33.4-28,45.3-44.6c41.5-58,80.9-117.4,124.8-173.6c22-28.1,46.6-54.2,76.4-73.6
		c31-20.2,64.5-17.5,97.9-2.6c33,14.7,66.5,26.1,104,24.7c52.6-2,80.4-31.6,67.6-84.4c-10.6-43.9-30.6-83.2-69.5-110.4
		c-20.3-14.2-41.3-17.2-64.2-9.7c-12.8,4.2-25.8,8-38.1,13.8c-49,23.2-96.6,14.9-144.1-5.7c-33.7-14.6-67.8-28.7-104-36.2
		c-53.4-11-102.8,2.3-150.1,26.1c-36.3,18.2-71.8,38-108.2,55.8c-50.1,24.5-92.5,16.7-128-23.9c-16.8-19.3-26.9-42.4-36-66
		c-21.4-55.3-44.3-109.8-76.1-160.1c-17.9-28.3-37.4-55.1-64-76.1c-46.5-36.8-96.2-37.7-148.1-13.9c-58.3,26.8-114.9,57.2-174.2,82
		c-21.3,8.9-42.7,17.5-66,20.2c-37.8,4.4-67.4-13.4-96.1-34.2c-18.5-13.4-37.1-26.7-58.1-35.9c-33.9-14.8-67.8-12-102.1-0.2
		c-63.6,21.8-129,38-196.1,41.5c-53.2,2.8-106.8,3.3-160.1-1.5c-58.8-5.2-117.4-11.8-176.1-17.9c-4.7-0.5-9.5-0.7-14-2.1
		c-32.1-9.6-37.5-23.9-29.7-51.8c9.7-34.6,32.1-62.9,52-92c40.7-59.4,72.9-123,97.5-190.4c18.6-51,23.1-101.5-9.5-150.2
		c-19.2-28.8-45.7-48.1-76.6-59.3c-96.2-35.1-194.2-64.5-296-78.4c-84.7-11.6-138.6,29-158.2,115.9c-14.7,64.9-2.5,126,21.9,186.3
		c10.6,26.2,22.3,51.9,28.6,79.9c14.3,62.9-12.7,107.2-62.5,134c-52.2,28.2-108.9,44.9-166.2,57.7c-108.6,24.3-181.1,89.2-215,193
		c-22.5,68.8-49.2,135.1-80.7,200c-13.3,27.4-19.6,56.9-10.5,87.9c9.8,33.1,29.7,39,54.2,16.1c14.9-14,25.6-31.1,35.7-48.3
		c66.6-113.4,168.3-163.2,296.4-156.9c66.8,3.3,134.4,7.7,200.1,21.6c74.8,15.8,83.5,48.4,85.8,107.5c2,52.2-4.5,104.1-8.9,156.2
		c-5.1,59.8-10.5,120.1,1.3,180.1"/>
	<path class="st0" d="M3084.2,1877.4c-8.4-40.1-32.2-48.2-62.1-49.8c-75.4-4.2-147.2-19.4-210.2-64.2c-43.6-30.9-80-69.1-116.2-108
		c-25.8-27.6-52.3-54.8-83.9-76.2c-39.3-26.7-84.2-31.2-130.1-34.4c-62.2-4.4-121.8,10.9-182.1,20.9c-36.3,6-70.5,9.5-102.2-14.4
		c-38.9-29.3-74-62.1-95.7-106.3c-18.6-37.8-12.1-75.1,5.5-112.1c27.4-57.7,64.6-109.7,94-166.2c14.3-27.5,29.7-54.4,40.8-83.7
		c13.2-35,3.8-51.5-34.6-55.6c-49.3-5.3-98.8-1.6-148.1,5c-26.8,3.6-53.6,7.4-79.9,12.8c-61.8,12.8-105.6,50.9-138.3,103.6
		c-32.3,52.1-56.8,108.5-89.8,160.3c-46.9,73.6-91.1,148.8-128.6,227.9c-25.8,54.3-68.3,90-125.6,110.7
		c-85.5,31-158.8,84.6-234.3,133.7c-51.8,33.7-104.6,66.2-152.2,106c-57.4,48-77.3,113.3-81.5,184.2c-2.6,43.9,17.7,81.4,51.8,107.6
		c84.6,64.9,172.5,125.5,260,186.3c44.5,30.9,93.2,31.3,144.1,14.8c37.8-12.3,76.4-22.4,115.9-28.5c73.1-11.3,142.7,1.5,210.2,30
		c59.9,25.3,112.3,63.6,168.1,96.2c12.6,7.4,25.2,15,38.1,22c29.5,15.8,50.1,14.2,73.9-10.1c33.7-34.3,64.7-71.3,102.1-102.1
		c35.1-29,72-54.7,116.2-67.8c67.5-20,128.3-4.6,184.1,35.9c45.6,33.1,76,78.6,104.1,126.1c13.2,22.3,29.2,42.3,48,60
		c17.5,16.5,39.6,20.1,61.8,7.7c33.4-18.7,62.1-43.7,90.5-69.4c41.4-37.5,82.2-75.2,117.9-118.3c31.1-37.6,32.4-64.3,7.7-108
		c-17.8-31.5-38.4-61.8-49.4-96.3c-20.9-65.9-0.8-109.5,51.5-148.2c31.6-23.4,68.9-35.7,102.5-55.3c30.1-17.5,49.8-40.3,55.7-74.6"
		/>
	<path class="st0" d="M2041.5,2315.7c54.4-2,99.9-27.7,137.4-62.8c70.5-65.9,152.4-76.2,243-66.1c51.9,5.8,102,17.4,152.1,30.7
		c10.5,2.8,21.2,4.9,32,6c34.5,3.6,51.7-10.7,58.2-45.9c5.3-28.6,3.4-57.4,5.4-86.1c2.9-40.9,11.6-80.2,26.6-118
		c22.9-57.5,14.2-109.9-20-160.4c-27-39.8-54-79-98.3-102c-20.8-10.8-42.8-16-66.1-18.2c-41.4-3.9-82.5-7-120.1,16.2
		c-39.4,24.3-52.2,64.1-59.8,106.1c-7.5,41-6.1,83.5-16.6,124c-16.9,65.2-46.3,122.9-107.8,158.2c-22.3,12.8-46.8,16.9-72,18
		c-44.3,2-88.3-2.1-132.1-8c-75.7-10.1-149.1-28.1-218.2-61.9c-61.8-30.2-114.2-71.8-155.9-126.4c-26.6-34.9-60.5-29.2-88.2-3.8
		c-23.6,21.6-37.1,50.9-55.8,76.2c-4.6,6.2-8.9,12.4-14.4,17.7c-18.4,18.2-37.5,19.6-55.8,1.8c-14.5-14.1-26.8-30.5-40.3-45.8
		c-39.4-44.8-115.6-35.2-145.9,18.1c-12.4,21.8-23.8,44.6-25.9,70c-4,45.9,23,74,57.7,98.2c63.8,44.5,133.2,57.6,210.4,48.8
		c70-7.9,140,2.6,208,21.3c63.1,17.4,124.7,39.4,186.4,61.2c52.7,18.5,107.6,29.1,163.9,30.7c3.4,0.1,6.7,1.3,10,1.9"/>
	<path class="st0" d="M3230.3,0c-56.5,39.2-117.8,52.7-186.2,40.6c-55.1-9.8-109.7-23.4-166-27.1c-14.1-0.9-28.2-2-42-1.1
		c-35.8,2.3-56.1,23.6-58,59.7c-2.4,46.7,22.4,81.1,63.8,94.4c38.1,12.2,77.2,13.7,116.2,15.3c91.3,3.7,182.8,1,274.2,2.7
		c76.3,1.5,152.3,8,228.2,17.1c73.4,8.8,146.1,19.7,218.1,36.3c74.1,17.1,140.6,51.2,206.2,88.1c80.7,45.4,157.3,96.7,228,156.4
		c34.3,28.9,62.8,63.9,96.1,94c79.1,71.6,170.8,111.9,278.3,114.1c20,0.4,39.8,1.7,60.1,0.5c59.3-3.4,89.6-47.6,85.8-102.7
		c-3.7-52.1-37.7-99.9-85.8-112.1c-21.1-5.3-42.7-1.9-64.1-3.4c-42.1-3-77.9-18.8-110-44.7c-47.7-38.4-79.4-89.1-108.1-142.1
		c-21.9-40.3-43.8-80.6-76-114.1c-45.4-47.2-103-64.9-166.2-70.1c-56-4.6-111.9-10.2-158.2-47.8c-19.4-15.7-35.2-34.3-49.9-54.2"/>
	<path class="st0" d="M2665.9,0c23.4,30.8,25.5,68.4,34.1,104.1c5.8,24.2,8.8,49,19.5,72.3c10.5,22.7,27.7,35,50.4,41.9
		c30.7,9.4,62.6,8.2,94.1,9.7c63.7,3,127,8,190.2,17.6c48.2,7.3,97.3,5.4,146-1.2c129.8-17.7,258.2-8.8,384.2,26.2
		c142.6,39.7,276.5,98.9,398.3,183.9c53,37,99.5,81.8,146,126.2c81.8,78.3,174.7,138.2,282.4,173.8c38.8,12.8,79.5,15,120,18.6
		c29.3,2.6,57.6-0.7,86.1-6.3c43.9-8.6,69.3-36.1,77.7-78.3c15.4-77.8,4.6-153-30.1-223.9c-20.3-41.5-57.3-62-101.7-70.3
		c-19.9-3.7-39.9-4.8-60.1-3.9c-74.3,3.1-128-31.2-170.5-89.8c-34-47-56.3-100-83.4-150.5c-39.7-74-96.7-126.4-178.4-150"/>
	<path class="st0" d="M4187,2507.8c22.9-9.3,33.9-30.7,32.1-60c-2.8-46.5-21.4-86.3-50.1-122.1c-22.3-27.8-49.3-51.3-80.4-67.4
		c-42.1-21.7-42.5-55.5-38.1-94.8c6.1-54.2,25.4-103.8,48.8-151.9c37.2-76.6,29.4-149.7-10.1-222.5c-16.1-29.6-34.7-57.4-52.5-85.8
		c-39.1-62.7-37.7-97.1,8.4-162.1c24.7-34.9,51.9-68.1,67.7-108.3c12.8-32.6,22-66,16.4-102c-5.7-36.8-27-58.2-62.3-59.5
		c-76.6-2.7-153,1-226.1,27.5c-93.3,33.9-151.4,97-164.4,198c-4,30.8-11.1,61.1-13.7,92.1c-3.8,44.5,3.5,87.1,21.8,128.2
		c40.7,91.3,66.5,186.7,78.5,286.1c9.5,78.9,51.9,137.2,117.7,180.4c37.3,24.5,76.2,45.5,120.3,53.4c24.3,4.4,33.8,18.6,38.1,40.5
		c6.9,35.1,12.9,70.4,25.7,104.2c17,44.7,41.3,83.4,82.2,110.1c11.8,7.7,24.4,13,38.1,15.9"/>
	<path class="st0" d="M3716.7,4323.1c-6.4-35.9-24.5-66.8-41.9-98.2c-37.3-67.1-82.9-129-120.5-195.9
		c-32.4-57.5-64.6-115.2-93.2-174.6c-24.7-51.4-64.8-70.1-118.7-72.3c-35.3-1.4-70.8,1-106.2-5.1c-34.9-6-64.4-22.2-91.9-42.6
		c-54.4-40.3-110.3-77.7-174.2-102.1c-69.1-26.5-138.5-36.8-210.2-11.8c-12.8,4.4-25.2,10-35.9,18.1c-24.8,18.8-33.1,32.8-21.7,69.8
		c7.8,25.4,19.8,49.4,29.6,74.2c14.5,36.6,22.2,74.8,23.9,114.1c2.1,47.3-14.9,90.2-34.4,131.9c-6.6,14-13.1,28.2-19.3,42.4
		c-19,43.3-10.5,82.1,19.6,118.1c51.6,61.6,116.7,68.3,188.2,47.6c43.9-12.7,83.4-35.8,124.2-55.7c24.6-12,49.9-20.4,78-20.5
		c27.8,0,51.1,9.8,72,26.5c46.9,37.5,74.7,89.2,104.5,139.8c26.7,45.5,50.3,92.9,83.7,134.4c17.8,22.1,37.1,40.6,68.1,40
		c15.6-0.3,29.4-6.2,41.9-14.2c60.4-38.9,125.4-69.4,188.2-104c23.4-12.9,43-28.9,46.1-58"/>
	<path class="st0" d="M1002.7,4999.6c7.6-63.7-11.1-122.5-38.7-177.8c-31.7-63.5-26.8-123.3,4.4-184.6
		c42.6-83.8,93.4-162.8,140.5-244c25.1-43.2,47.4-87.8,73.5-130.4c23-37.6,57.6-54,98.4-61.8c43.4-8.3,87.4-13.7,130.2-25.8
		c35.4-10.1,69-24.1,97.7-46.6c32.8-25.8,49.9-58.6,16.1-107.5c-25.7-37.1-52.8-73.3-83.9-106.1c-38-40.1-67.9-40.3-107.9-2.1
		c-23.8,22.7-42.3,49.9-62.1,76c-24.3,31.9-44.4,66.4-66.5,99.8c-40.9,61.8-69.3,65.2-135.6,55.8c-23.8-3.4-47.3-11.4-70-19.8
		c-67.4-24.8-129.3-12.2-183.9,30.8c-71.8,56.6-119.8,131-148.4,217.7c-11.2,33.7-4.9,66,7.8,98.1c26.5,67,68,125.1,108,184.2
		c19.2,28.4,34.7,58.3,38.9,93.9c3,25.2-3.6,48.2-11.5,69.9c-22.4,61.2-54.4,118.1-83.4,176.3c-0.9,1.9-2.6,4.6-5.9,4.1"/>
	<path class="st0" d="M108.1,4999.6c37.8-16.4,75.4-34.1,109.7-56.6c44.3-29.1,61-76.8,74.5-125.5c10.3-37,20-74.2,33.8-110.1
		c19.7-51.1,59.8-84.2,99.8-118.5c46.1-39.4,73.6-90.8,88.8-149.6c8.1-31.4,0.7-60.8-6.8-90.1c-8.3-32.5-19.2-64.4-21.6-98.2
		c-4.2-60.6,18.2-113.7,48.3-163.9c19.8-33,42.6-64.1,63.7-96.3c29.9-45.7,45.1-93.7,24.3-148.2c-7.7-20.2-19.3-37.2-34.4-51.8
		c-26.9-25.9-54.5-50.9-82-76.2c-14.7-13.5-27.8-28.5-39.8-44.2c-35.7-46.9-36.4-81.5,0.2-127.7c22.8-28.8,48.8-55.2,73.9-82.2
		c7-7.5,12.1-15.9,17.8-24.2c22.2-32.2,11.7-63.5-8.6-89.6c-34.3-44-77.5-79.5-127.7-104.1c-38.4-18.8-80.2-22.6-121.8-10.4
		c-74.3,21.9-137.9,59.9-184.3,123.8c-23.9,32.9-19.7,64.7-2.1,98.3c14.9,28.4,35.9,52.6,52.6,79.7c26.8,43.4,34.3,86,3.6,130.3
		c-32.1,46.4-75.1,68.2-132.1,58c-12.7-2.3-24.8-8.2-38-8"/>
	<path class="st0" d="M4999.6,2129.5c-18.9-10-40.1-6.2-60.1-9.5c-35.9-5.9-71.8-11.7-106-24.6c-51.8-19.6-78.9-59.4-90.2-112
		c-9.1-42.3-8.2-85.3-9.7-128.1c-0.6-16.3-2.8-32.3-6.5-48c-12.8-53.9-54.1-77.1-101.8-94.3c-69.5-25.1-141.2-44-208.3-75.6
		c-23.1-10.9-46.6-21.2-71.9-26.3c-46.3-9.4-78.4,15-88.4,60c-7.6,34.4-1.6,67.4,6.6,100.1c21.2,85.1,48.8,168.3,74.7,252
		c18.9,61,57.4,108.6,121.2,130.4c27.5,9.4,56.1,5.7,84.1,7.5c85.5,5.4,157,38.1,216.5,100.2c40.2,42,79.6,84.6,117.9,128.3
		c55.7,63.6,58.3,136,35.7,212.2c-12.3,41.4-25.2,82.4-26,126.2c-0.2,11.1,1.8,22,4.8,31.9c6.6,22,31.4,32.2,59.3,23.7
		c17.2-5.3,35-11.7,48.2-25.5"/>
	<path class="st0" d="M4999.6,4014.9c-30.6,11.3-62.1,11.2-94.1,8.2c-61.3-5.7-113.9-35.3-168.1-60.3c-41.9-19.3-83.6-40-130.2-43.6
		c-136.3-10.3-210.1,8.7-287.3,122.3c-33.4,49.2-19.2,97.9,35,135.7c40.1,27.9,85.8,38.8,132.3,47.6
		c60.3,11.4,120.8,21.4,176.1,50.2c46,23.9,82.4,56.9,95.4,108.3c8.3,32.9,3,66.3-11.2,98c-23.2,51.8-44.4,104.5-68.6,155.9
		c-16,33.9-39,63.6-65.6,90.3c-13.9,13.9-25.8,29.5-31.7,48.1c-5.1,16.3-4.9,33,9.7,45.9c11.4,10.1,28.9,10.8,46,2
		c22.8-11.7,40.4-30.2,60-46.1c46.8-38.1,102.2-54.1,160.2-64c47.4-8.1,94.7-7.4,142.1,0"/>
	<path class="st0" d="M4999.6,4127c-73.6,22.9-139.9,6.6-202.3-35.8c-37.6-25.6-75.7-50.5-117.9-68.4
		c-57.6-24.5-117.6-25.3-178.2-19.5c-25.8,2.4-51.2,7.3-74.2,21.5c-37.1,22.8-55.1,53-45.6,84.2c9.5,30.9,35.4,45.5,63.7,56.1
		c36.1,13.4,74.6,16.4,112.1,24.1c67.2,13.8,136,22,198.1,54.1c46,23.7,80.2,60,105.9,104.2c23,39.7,14.9,77.8-9.8,114
		c-15.8,23.1-33,45.2-46,70.1c-10.4,20-17.6,40.7-16.3,64c1.3,22.8,8.3,32.1,30.1,42.3c19.5,9.1,40.1,8.3,60.2,9.3
		c40,2,80,1.7,120.1,2.4"/>
	<path class="st0" d="M0,1579.1c43.3,4.7,86.5,10.7,130.1,9.9c44.8-0.8,85.1-12.8,111.9-52.1c13.2-19.4,21.1-41.9,27.8-64
		c24.6-80.9,36.1-164.1,44.8-248c6-58,12.2-116.2,43.3-168.4c21.2-35.4,50.6-62.6,80.4-89.9c26.8-24.6,55.6-47.7,75.7-78.3
		c28.4-43,29.6-69.6-7.5-106c-15.9-15.6-34.5-27.7-54.4-35.3c-48.9-18.6-99.5-20.2-149.8-4.5c-40.8,12.8-57.7,45.2-66.1,83.9
		c-5.5,25.3-8.8,51.3-16.4,75.9c-18.1,58.9-63.2,90.9-117.7,112.1c-32.8,12.8-67.1,19.9-102,24.1"/>
	<path class="st0" d="M2561.9,4999.6c-57-46.4-124.9-77-180.3-125.9c-47.9-42.4-70.2-97.7-81.7-158.3c-6.4-33.7-8-67.7-2.5-102.1
		c8.3-52.6,35-93.7,74.3-128.1c13.8-12.1,27-25,40.1-38c21.2-21.1,18.8-32.2-10-43.9c-26.9-10.9-55.3-16.3-84-20.2
		c-58.8-8-117.3-8.6-176.2,1.7c-74.4,12.9-135.1,48.4-181.7,106.8c-24.3,30.5-49.6,59.8-76.7,87.5c-44.2,45-68,99.2-80.1,160.3
		c-11.7,59.2-16.4,118.4-7.5,178.2c4.3,29.2,12.4,57.5,29.8,82.1"/>
	<path class="st0" d="M1066.8,2c7.3,9.3,15.3,18.3,21.9,28.1c17.8,26.5,15.7,52.4-5.9,75.9c-15,16.3-33.3,28.5-52.1,40
		c-41.9,25.6-83.8,51.2-126.1,76c-32.5,19-66.6,26.9-104.1,14.3c-69.1-23.3-136.4-10.6-204.3,9.2c-53.9,15.7-105.9,38-161.9,46.9
		c-43.9,7-87.8,7.3-132.1,6.5c-53.3-1-107.1-5.9-160.2,7c-26.7,6.5-51.2,17.2-71.7,34.6c-43.6,37-49.7,80-14.1,129.7
		c22.3,31.2,48.9,59.4,65.7,94.3c8.2,17,13.4,35.3,16,54c4.8,34.4-8,63-36.2,81.5C70.8,720.2,36.9,735.6,0,742.5"/>
	<path class="st0" d="M3148.3,416.3c5,12.4,14.9,20.9,24,30c32.7,32.9,66.3,64.9,92.3,104c34.4,51.8,48.1,109.9,56,170.2
		c4.7,36.4,8.6,72.7,19.6,108.2c19.2,62.4,59.1,73.8,110.3,63.5c58.9-11.9,109.6-37.9,140.3-93.5c25-45.2,29.9-88.8-4-132.3
		c-17-21.8-30.2-45.7-34.3-73.9c-5.2-35.5,6.2-66.4,24-96.1c21.8-36.5,18.6-66.8-10-98c-10.4-11.3-23-19.8-35.8-28.3
		c-93.8-61.9-192-59.5-292.2-19.5c-24.9,10-48.2,24-70.2,39.7c-8.9,6.3-17.5,12.6-20,24.1"/>
	<path class="st0" d="M2842.1,4999.6c-30.9-8.1-58.4-22.9-81.8-44.3c-11.7-10.7-14.6-26-14.3-41.8c0.8-48.7,10.5-96.3,18.2-144.1
		c7.5-46.9,20.2-92.9,25.8-140.1c3.6-30.2,6.6-60.4-11.7-88.1c-18.4-27.8-44.9-38.5-76.1-27.8c-28.6,9.8-54.9,24.9-81.9,38.2
		c-41.9,20.7-87.1,26.7-132.3,29.1c-109.1,5.8-145.6,113.6-95.8,198.6c18.6,31.8,47.1,53.8,79.8,70.2
		c57.4,28.7,114.9,57.1,172.1,86.2c27.7,14.1,51.7,32.6,62.1,63.9"/>
	<path class="st0" d="M2,3100.3c35.9-32.4,71.6-65,116-86.2c40-19.2,81.9-28.3,126.1-30.2c47.6-2.1,96.3,2,142-15.9
		c36.2-14.2,65.1-37,78.2-75.8c11.2-33,4.6-48.9-26-66.3c-18.4-10.5-38.7-15.4-58.3-21.4c-121.7-36.9-178.3-126.1-197.5-244.7
		c-4.5-27.7,3.1-56,5.2-84c3-40.6,8.8-80.9,6.9-122.1c-2.7-59.3-36.1-84.2-86.7-99.8c-35-10.8-71.6-11.4-108-10.3"/>
	<path class="st0" d="M4579.3,0c-32.3,18.2-68.5,20.9-104.1,26c-31.4,4.5-62.6,10-92,22.2c-51.3,21.2-63.6,52-57.5,99.8
		c7.9,61.8,32.2,116.4,85.3,154.3c24.2,17.3,51.4,23.5,80.1,23.8c53.7,0.4,105.8,6.3,156.3,27.7c64.1,27.1,95.8,74.7,102.1,142.6
		c4.4,47.6,8.2,95.5,20,142.1c10.6,41.6,30.8,76.8,77.9,83.5c20.9,3,43,2.9,63.9-3.4c31.5-9.5,64.2-16.6,88.1-42"/>
	<path class="st0" d="M2397.7,4999.6c-72.9-45.8-117.8-111.3-140.6-194c-15.3-55.7-26.4-113.1-55.2-164.5
		c-2.9-5.1-5.4-10.9-8.6-15.6c-26.1-38.1-62-48.6-105.8-36.3c-52.2,14.7-102.8,34.5-149.7,60.8c-77.9,43.8-101.7,115.7-94.8,201.4
		c4,49.3,23.6,88.2,66.4,113.9c17.6,10.6,37.3,15.5,58,16.2c42.7,1.5,85.4-2.9,128.2,3.5c18.8,2.8,34.6,15,54,14.5"/>
	<path class="st0" d="M2964.2,3062.2c-4-13.2-13-22-23.9-30.2c-84.3-63-163.5-132-238.3-205.9c-22-21.7-46.1-40.4-78-43.8
		c-21.2-2.3-42.4,2.1-61.9,10.1c-31.2,12.8-61.8,27.1-92.1,41.9c-16.1,7.8-28.7,19.8-38.4,35.7c-24.8,40.8,0.2,82.9,36.2,96.3
		c31.1,11.6,64,13.5,96.1,20.1c73.3,15.3,143.2,40.2,210.4,73.4c33.6,16.6,68.3,33.3,105.9,37.8c28.8,3.5,58.8,2.7,79.9-23.5
		c2.2-2.7,2.8-6.6,4.1-9.9"/>
	<path class="st0" d="M1681.2,4999.6c3-61.4,18.9-121,24-182.1c3-35.4,4.2-70.7-1.8-106.1c-7.6-44.5-31.8-75.1-74.3-89.9
		c-66.2-23.1-135.8-30.9-203.9-22.6c-86.7,10.6-144.5,64.6-176.6,146.5c-30,76.6-34.8,153.6-9.8,232.3c2.3,7.2,4,14.7,6,22"/>
	<path class="st0" d="M1220.9,0c16.7,13.3,32.3,28.3,50.3,39.7c32.8,20.7,68.6,26,107.9,23.1c65.1-4.8,128.7-20.8,194.1-23.2
		c47.6-1.8,92.9,7.5,138.2,20.2c54.2,15.2,107.5,33.5,164,40.8c55.3,7.1,109.6,4.8,164.2-4.5c41.3-7,67.1-33,86.1-68.1
		c5.1-9.5,8.1-20.1,15.9-28.1"/>
	<path class="st0" d="M2696,3310.4c-6.5-56-66-93.6-112.1-104c-30.3-6.8-61.1-10.1-92.1-9.9c-50.3,0.3-100.1-6.6-150.1-9.9
		c-15.2-1-33.8-4.7-43.3,10.2c-8.3,13-0.7,28.3,5.4,41.6c28.4,61.4,67,113.4,132.1,140c34.5,14.1,71.4,16.1,108,17.9
		c32.3,1.5,63.6-1.5,94.3-15.1c31.7-14,51.9-34.5,57.8-68.7"/>
	<path class="st0" d="M2,4473.3c36.7,19.9,73.8,37.5,116,44.6c57.3,9.5,103-8.5,137.8-52.8c32.7-41.6,58.8-87.3,76.7-137.7
		c19.8-55.7,14.9-108.5-12.3-160.2c-33.5-63.8-78.4-119.4-132.9-165.2c-48.5-40.8-84.3-38.6-137.4-2.9c-17.8,12-30.3,30.5-50,40.1"
		/>
	<path class="st0" d="M1585.2,4999.6c38.9-63.6,70.4-130.2,73.7-206.2c3.1-69-30.4-119.2-107.7-130.2c-40.6-5.8-80.5-13.8-122.2-6.3
		c-75.6,13.6-125.3,82.5-130.2,158.5c-3.1,48.8,13.2,92.7,32.3,136c7.1,16.1,15.9,31.4,23.9,47.1"/>
	<path class="st0" d="M4999.6,1076.8c-59.1-10.4-116.1-9.7-166.1,30c-28.5,22.6-49.6,51.1-68.2,82c-36,60.1-75.9,117.6-119.5,172.5
		c-10.3,12.9-18.2,30-8.3,47.6c9.9,17.5,26.4,22.3,45.9,22.4c19.9,0.1,38.1-4.9,56.1-12.3c23.3-9.5,46.4-19.5,70.1-27.9
		c61.4-22,125.4-27.6,190.1-28.2"/>
	<path class="st0" d="M0,3002.2c23.6-12.2,42-31.6,63.9-46.2c31.4-21,64.9-38.8,96.1-60c42.3-28.8,60.9-47.3,40.1-113.9
		c-13.3-42.7-32.8-83-50.7-123.8c-25.8-58.9-36.7-118.3-28.1-182.5c4.2-31.1,2.1-63.2-9-94.1c-11.9-33.3-34.7-52.2-68.3-60
		c-14.5-3.4-28.9-7-44-5.9"/>
	<path class="st0" d="M4445.2,4998.6c-33.9-44.3-73.5-83.3-116.2-118.9c-44.4-37.1-98.1-47.3-154-50.2c-49.8-2.6-98.6-10-146.2-25.6
		c-23.4-7.7-46.9-16.3-71.9-18.3c-58.1-4.6-97.2,27-132.3,67.9c-34.8,40.6-60,86.2-78.2,136.2c-1.3,3.5-0.8,10.2-7.7,10.1"/>
	<path class="st0" d="M4999.6,2962.2c-28.9,26.3-62.3,46.8-92.2,71.9c-37.4,31.5-75.4,61.8-102.3,104
		c-25.9,40.7-36.2,85.8-39.2,132.3c-4.2,64.4,4.8,127.1,33.4,186.2c20.6,42.6,47,79.1,94.3,93.7c36.5,11.2,71.6,0.6,106-11.7"/>
	<path class="st0" d="M460.3,0c33.4,24.3,66.3,49.4,91.9,82.2c36.4,46.7,26.8,75.8-8.2,105.5c-41.7,35.5-91.5,54.9-145.8,62.5
		c-56.9,8-113.5,3.9-170.2-3.6c-37.7-5-76-6.8-114-4.1C71.7,245.6,36.4,267.3,2,290.2"/>
	<path class="st0" d="M0,1477.1c29.3,2.7,58.5,8.6,88.1,7.9c52.8-1.2,93.4-26.7,119.5-70.3c47.2-79,60.8-164.1,34.6-253.8
		c-13.2-45.2-47.2-61-84-62.3c-49.3-1.7-97.8,4-146.1,12.1c-3.9,0.7-8,0.1-12,0.1"/>
	<path class="st0" d="M0,4399.2c14.9,2.9,27.9,11.1,42.1,15.9c125.6,42.8,213.8-48.6,225.7-148.1c7.4-61.5-18.2-112.4-59.7-156
		c-59.2-62.3-110-65.8-182.3-16.4c-7.5,5.1-13.5,13.6-23.8,14.4"/>
	<path class="st0" d="M3674.7,0c23.6,21.4,41.7,47.7,53.3,76.4c20.8,51.5,10.2,68.4-43.4,77.1c-48.9,7.9-98.7,2.9-148-1.3
		c-52.2-4.4-104.7-6.4-156.1-18.1c-21.8-5-43.2-10.4-62.2-23.7c-23.6-16.5-28-30-13.8-54.2c11.9-20.2,27.8-37.2,43.9-54.1"/>
	<path class="st0" d="M4697.4,2c-41.6,78-109.2,118-194.2,131.9c-15.2,2.5-30.1,5.9-43.9,12.4c-16.3,7.7-26.1,20.4-26.3,39.8
		c-0.2,20.4,8.7,33.9,26,44.3c19.5,11.8,41.1,11.2,62.2,13.6c47.1,5.5,92.4,18.8,138,30.4c21.8,5.6,44,10.2,66.1,11.2
		c32.5,1.4,60.6-15,75.2-41.9c42.6-78.4,103.8-140.8,164.7-203.9c11.5-11.9,22.6-24.7,30.2-39.8"/>
	<path class="st0" d="M2,4561.3c46.4,23.3,96.3,38.1,144.2,57.7c41.9,17.1,72.1,43.1,75.6,90.4c4.7,62.1-18.8,114.2-64,155.9
		c-39.5,36.4-89,57.9-133.8,86.4c-8.1,5.1-17.8,7.9-24.1,15.9"/>
	<path class="st0" d="M4998.6,3064.2c-39.2,18.6-78.6,37.2-113,64.1c-51.8,40.6-78.8,93.8-80.2,160c-1.3,58.8,13.7,111.2,56,154.2
		c28.8,29.2,64.8,33,102.1,29.1c11.7-1.2,24.9-3,36.1-9.2"/>
	<path class="st0" d="M1096.8,2696c-15.2,3.9-28.7,11.3-40,22.1c-29.9,28.7-57,59-70.7,99.8c-6.9,20.4-2.8,38.4,7.3,53.8
		c9.3,14.3,23,26.5,39.3,34.6c34.4,17.1,66.3,14.9,88-18.1c32.5-49.3,40.4-102.1,19.9-158c-7-19-21.3-30.8-41.9-34.1"/>
	<path class="st0" d="M4999.6,1719.2c-29.3,3.9-58.8,5.1-88.1,9.6c-45.9,7-74.2,33.3-85.6,76.6c-11.7,44.7-15.1,89.7,5.3,134.1
		c25.5,55.5,73.4,76.7,128.4,87.7c13.1,2.6,26.3,6,40,4.2"/>
	<path class="st0" d="M0,4323.1c16,4.7,28.4,16.2,43.9,22.3c67.6,26.7,140.7-4.2,155.9-76.4c9.9-46.7-2.4-85-41.9-115.7
		c-36.6-28.4-77.7-22.6-115.9,1.6c-14.1,9-26.9,19.8-40,30.1"/>
	<path class="st0" d="M4999.6,4871.5c-13.1-33.8-41.7-45.5-74.1-47.6c-55.7-3.6-99.2,27.3-117.7,73.8c-19,47.8,4.6,92.1,61.7,97.8
		c43.5,4.4,113.2-36.6,130-76c1-2.3,0.1-5.3,0.1-8"/>
	<path class="st0" d="M4239.1,4999.6c-35.7-19-67.9-43.7-103.9-62.4c-47.5-24.6-95.3-48.3-144.4-69.4
		c-67.2-28.9-121.5,6.8-152.3,61.6c-12.5,22.3-21.5,45.6-27.8,70.2"/>
	<path class="st0" d="M0,1379c24.7,1.9,49.2,5.2,74.1,4.1c99.4-4.6,130-109.1,98.5-164.4c-16.7-29.3-41.9-41.1-72.5-43.4
		c-33.4-2.5-66.9-0.1-100,5.6"/>
	<path class="st0" d="M4999.6,4775.5c0.5-3.2-2.3-5.4-4.1-5.8c-92.3-22.5-186.7-4.3-250.3,79.7c-25,33-42.8,69.9-61.8,106.3
		c-7.6,14.6-16.3,28.3-28,40.1c-3.8,3.8-7.6,4.1-12.2,3.9"/>
	<path class="st0" d="M4999.6,772.6c-35.5,18.7-73.9,30.7-110.2,47.8c-22.2,10.5-42.9,21.9-58.1,42.1
		c-25.3,33.6-15.7,68.1,24.2,84.2c41.8,16.9,86.7,20.4,130.2,29.8c4.5,1,9,3.7,14,2.2"/>
	<path class="st0" d="M4999.6,3130.3c-18.5,12.6-40.7,17.1-60.2,27.8c-47.5,26.1-79.6,61.9-86.2,118.3
		c-8.3,70.7,35.1,139.9,124.4,124.1c7-1.2,14-2.7,21-4"/>
	<path class="st0" d="M3554.6,4999.6c-16.2,1.5-23-13.2-33.7-20.4c-25.6-17.3-49.6-37.1-78.3-49.7c-46.9-20.5-92.3-15.3-136,8.3
		c-29.6,15.9-56.7,35.8-82.1,57.9c-3,2.6-6,4.4-10.1,3.9"/>
	<path class="st0" d="M2,2912.1c23.3-18.6,45.4-38.5,66-60.1c35.3-37,44.8-79.2,28.2-128.2c-16-47.1-41.4-85.9-86.2-110.2
		c-3.7-2-6.8-1.1-10.1-1.8"/>
	<path class="st0" d="M2,4633.4c27.8,13.8,56.4,25.9,82.2,43.8c56.1,38.8,56,96,11.6,142.1c-26.4,27.4-58.8,47.1-93.8,62.3"/>
	<path class="st0" d="M4999.6,128.1c-13.4,24-36.8,39.2-52.6,61.6c-47.5,67.8-41.1,123.9,2.7,182.5c14.8,19.8,30.4,38.9,46.1,58
		c2.7,3.3,4.5,6,3.8,10.1"/>
	<path class="st0" d="M4999.6,1170.9c-24-1.7-47.8-7.3-72.1-0.2c-26.4,7.7-47.5,20.9-60,46.2c-13.5,27.3-4.8,47.6,24,58.2
		c20.9,7.7,42.4,7.9,64.1,7.9c14.7,0,29.4,0,44,0"/>
	<path class="st0" d="M560.4,0c35.5,22.1,70.5,45.5,110.1,60c43.6,15.9,83.8,8.7,120-20c15.2-12,29.4-25.2,44.1-37.9"/>
	<path class="st0" d="M0,1731.3c59.4,5.3,117.6,15.2,170.1,46c47.9,28.1,41.4,56.7,17.5,89.7c-29.6,40.8-72.6,64-119.5,80.7
		c-21.8,7.8-44,13.6-66.1,19.8"/>
	<path class="st0" d="M3488.5,1284.9c-7.9-23.4-21.5-29.6-44-20c-19,8.1-31.5,28.2-30,48c1.7,22.5,21.6,34,39.9,21.8
		c16.9-11.4,29.4-27.1,34.2-47.8"/>
	<path class="st0" d="M184.1,0c-22.7,8.6-43.4,21.3-65.9,30.3C79.4,45.8,40,44.1,0,38"/>
	<path class="st0" d="M4999.6,3210.3c-9,8.6-21.7,9.8-32.2,15.7c-13.4,7.5-24.3,17-31.9,30.3c-15.8,27.5-0.2,58.2,32,61.8
		c10.6,1.2,21.4,0.8,32-1.8"/>
	<path class="st0" d="M2,838.6c17.3-3.9,34.9-3.9,52,0.2c29.7,7,39.6,38.2,20,61.9c-11.2,13.5-25.2,22.9-42,28.1
		c-10.1,3.1-20,6.6-30,10"/>
	<path class="st0" d="M0,3802.8c41.3,26,52.9,66.9,26.1,108.2c-7.6,11.7-10.6,26.5-24.1,33.9"/>
	<path class="st0" d="M2,526.4c16.2,18.4,27.9,39.5,29.7,64.1c1.9,26.1-6.9,48.7-29.7,64"/>
	<path class="st0" d="M4999.6,1837.3c-3.4,8.4-12.4,5.3-18.3,7.3c-18.2,6.1-33.1,15.8-35,34.8c-1.6,15.3,11.9,29.1,35.1,38.4
		c6,2.4,15.5-2.6,18.2,7.6"/>
	<path class="st0" d="M2,3604.6c3.2,0.5,3.8-3.2,6-3.9c11.3-3.5,24.5-8.8,21.1-21.9c-3.3-12.8-12-25.8-29.1-26.2"/>
	<path class="st0" d="M2059.5,1803.3c-13.8,3.4-25.7,10.3-36,20c-21.4,20.2-18.8,35.8,8,50c28.3,15,67.8,1.7,73.7-26.1
		c4.4-20.5-4-48.5-43.7-44"/>
	<path class="st0" d="M3458.5,1905.4c-27.3,2.1-53.6,6.9-72,30.1c-6.5,8.3-12.9,16.8-17.9,26c-15.1,27.8-29.9,55.8-44.1,84
		c-11.4,22.8-10.1,43.9,7.7,64.2c19.1,21.7,42.5,38.8,60.4,61.7c31,39.6,41.2,87,51.8,134.2c15.7,70.1,24.1,141.4,36,212.2
		c5.2,31,18.5,57.6,40.2,80c57.9,59.8,126.9,105.3,196.4,149.7c87.5,55.9,150.9,131.3,189.3,226.8c25.8,64,69.8,105.9,132.5,132.3
		c49.2,20.7,98.6,42,144,70c75.3,46.4,114.4,118.5,136.4,201.7c12.5,47.3,15.3,95.7,17.7,144.1c2.8,56.2,32.1,92.4,82.2,114.1
		c26.2,11.3,53.6,16.6,82.1,15.9c33.4-0.7,67.1,3.4,100.1-5.9c50.4-14.3,91.1-37.7,95.6-104.1c1.2-17.8-1.5-36.3-4.3-53.9
		c-4.6-28.7-3-57.5-4.7-86.2c-2.7-43.2-1.3-86.7-2.7-130.1c-1.2-36.9-4.6-73.6-11.5-110.2c-10-53.3-42.4-86.2-90.5-105.9
		c-32.4-13.3-65.9-24.2-97.9-38.5c-35.3-15.9-63-42.9-90.2-69.8c-45.3-44.8-89.7-90.4-138-132.2c-58.7-50.7-127.7-82.6-198.3-111.8
		c-47.4-19.5-92.9-42-123.7-84.5c-28.2-38.8-44.4-84-55.9-130c-24.1-96.5-73.9-175-152.4-236.3c-42.8-33.5-85-68-116.5-113.7
		c-27.1-39.4-39.9-82.8-39.8-130.2c0-16.8-1-33.5-4-50c-4.1-22.1-28.3-46.4-52-48.8c-18-1.8-36.4-0.9-54.1-5.2"/>
	<path class="st0" d="M542.4,2103.5c-40.8,10.5-77.3,28.3-108.3,57.8c-27.1,25.8-31.5,66.8-11.8,100.3c18,30.6,41.4,57.3,64.5,83.7
		c43.8,50,80.4,105.2,119.7,158.5c10,13.5,21.8,25.1,36,34c11.2,7,22.2,4.9,31.9-2.2c15.4-11.3,22.4-28.4,28.1-45.9
		c22.3-67.5,34.9-136.2,13.6-206c-21-69-58.6-127.1-121.5-166.5c-15.9-9.9-32-14.5-50.2-13.7"/>
	<path class="st0" d="M3622.6,2285.7c-40.2,7.2-50.8,39-57.7,72.1c-8.3,39.2-3.8,78.7,1.6,118c2.7,20,3.1,40.5,8.4,60
		c12.8,46.7,44.7,79.4,81.8,108.2c50.4,39.1,107.1,64.9,168.2,82c11.9,3.3,24.1,2.4,36,1.8c13.3-0.7,19.8-14.3,15.9-33.8
		c-4.6-22.8-9.9-45.6-16-68.1c-17.1-63.6-30.8-128.3-53.9-190.2c-26.7-71.3-74.6-120.8-148-144.3c-11.2-3.6-22.4-6-34.1-5.8"/>
	<path class="st0" d="M954.7,2299.7c-28.7,7.7-39.1,31.1-45.7,56.1c-11.2,42.1-12.6,85.5-3.9,127.9c18.3,89.8,4,173.7-38.2,254.4
		c-28.5,54.5-58.7,108.6-76,168.1c-13.5,46.3-19.9,94-24.4,142c-3,31.8,15.8,47.4,44.1,54.2c31,7.4,62.8,5.4,94.2,9.1
		c43.6,5.2,76.4,26.6,106.2,56.6c37,37.2,60.8,83.6,89.9,126.2c22.3,32.6,45.2,64.7,78,88.1c40.1,28.8,82.1,33.6,126.1,9.9
		c33.1-17.8,62.5-40.6,85.9-70.1c22.5-28.3,22.3-55.4,0.1-83.9c-25.8-33-58.8-58.8-90.3-85.8c-46.9-40.1-69.4-87.1-62.7-150.6
		c5.7-53.5,10.7-106.3,26.4-158.2c15.4-51,38.9-97.9,64.8-143.8c2.6-4.7,5.3-9.4,7.7-14.2c16-31.7,13.8-50.1-10-76
		c-28.1-30.5-54.9-62.2-71.4-100.4c-10.9-25.2-18.4-52.1-32.7-75.7c-47.4-78.1-117.3-120.6-208-130.6c-19.4-2.1-38.6-3.9-58.1-3.6"
		/>
	<path class="st0" d="M314.2,18c-52.9,7.7-97.6,31.1-134,70.1c-9.4,10.1-17.3,20.9-18.3,35.9c-1.6,23.6,14.6,37.6,30.6,45.2
		c70.6,33.7,143.7,47.6,219.9,17c11.2-4.5,21.2-10.6,29.8-18.4c28.8-26.4,29.5-54.4,7.8-83.6C417.1,40.1,371.7,18.2,316.2,18"/>
	<path class="st0" d="M334.2,2363.7c-34.4,7.3-52.7,30.4-64.2,62c-19.7,53.9-35.9,108.5-21.6,166.1c27.8,112,145.2,149.2,222,98.4
		c39.4-26.1,57.7-68.2,45.2-120.1c-17.1-71-50-134.3-109.6-180.1c-20.2-15.5-43.4-26.1-69.9-26.2"/>
	<path class="st0" d="M3692.7,2439.8c-15.9,8.7-19.8,23.5-20,40c-0.1,14.7-0.3,29.4,0,44c0.6,26.5,19.6,55.7,48,64.1
		c19.3,5.7,35.4-4.2,35.8-24.1c0.9-39.7-14.1-74.9-34.2-107.9c-5.6-9.2-14.2-18-27.7-16.2"/>
	<path class="st0" d="M3042.2,2441.8c-24,3-48.4,2.5-72,8.1c-31.2,7.4-58.6,22-84.4,41.4c-32.7,24.6-61.1,52.7-83.6,86.6
		c-39.3,59.3-28.8,119,14.2,175.8c38.2,50.4,91.2,75.5,153.8,82.5c46,5.1,91.8,10.8,138.1,5.9c64.5-6.8,110.3-39.4,138.2-98.1
		c19.5-41.1,33.9-83.9,43.7-128.2c6.2-28.1,0.1-54.5-22-73.8c-53.5-46.7-112.5-83.7-184-96.2c-13.2-2.3-26.7-2.8-40-4.1"/>
	<path class="st0" d="M2343.7,2463.8c-34.1,6.7-50.9,33.5-65.6,60.3c-19.6,35.7-30.9,74.1-26.5,115.8c3,28.6,17.1,43,46,39.5
		c48.6-5.9,93-22.7,126.2-61.5c21.2-24.9,24.6-52.6,11.8-82c-9.5-21.8-23.5-40.4-41.6-56.4c-14.3-12.6-30.1-16.8-48.3-15.8"/>
	<path class="st0" d="M1647.2,2499.8c-70.1,13.2-129,46.8-178.1,98.1c-2.9,3.1-5.5,6.5-8,10c-14.6,20.1-13.9,34,4.1,49.9
		c23.5,20.8,51.6,33.7,82,39.9c58.7,12,116.6,9.3,172-15.9c27.2-12.3,48.7-29.2,54.6-61.9c3.9-21.6-1.4-41-11.1-57.8
		c-24.8-42.9-62.8-65.1-113.5-62.4"/>
	<path class="st0" d="M3028.2,2519.8c-22.4,5.6-45.9,3.2-68.1,10c-52.2,16-91.1,47.3-107.7,100.2c-17.5,55.6,10.2,107.5,58,131.3
		c62,31,128.7,35,195.8,18.4c52.6-13.1,80.8-51.7,89.3-102c8.7-51.8-10.2-95.3-55.1-126.1c-33.4-22.9-70.2-32.5-110.2-31.9"/>
	<path class="st0" d="M2387.7,26c-47.7,11.3-72.9,44.8-90.4,87.9c-15.2,37.6-29.2,75.1-29.5,116.2c-0.1,16.7,6.5,24,21.9,21.8
		c76.2-11.4,148.1-34.5,205.9-88.1c39.5-36.6,26.6-68.1,0.2-93.7c-29.4-28.4-63.4-46.8-106-44.1"/>
	<path class="st0" d="M4585.3,2571.9c-52.2,11-94.7,40.2-133.8,74.4c-18.9,16.5-26.9,35.9-5.6,61.2c36.7,43.7,84.9,64.9,143.5,58.7
		c41.5-4.4,77.2-47.1,79.9-92.2c2.1-35.9-3.2-69.3-37.9-90.1c-13.6-8.1-28.2-12.2-44-12"/>
	<path class="st0" d="M4028.9,186.1c-19.4,5-39,9.1-58.2,15.5c-47.2,15.7-37.4,42.4-17.4,66.2c40.4,48.1,89.4,86.7,143.7,118.4
		c30.4,17.7,60.5,36.1,96,42.2c25.6,4.4,43.5-9,39.6-34c-10.3-66.7-33.7-127.8-85.7-174.1c-33.1-29.4-73.3-36.5-116-34.1"/>
	<path class="st0" d="M3016.2,2611.9c-17.5,4.9-36.2,4.7-52.2,15.8c-29,20.3-27.6,54.5,4.2,70c27.7,13.5,57.8,16.6,87.9,13.8
		c27.5-2.6,47.3-25.8,46.1-49.6c-1.3-25.8-23.7-47.6-52-49.9c-10.6-0.9-21.3-0.1-32-0.1"/>
	<path class="st0" d="M2643.9,2659.9c-24.6,4.3-45.8,16.6-65.9,30.2c-48.3,32.5-101.7,55.5-152.2,84c-33.6,19-62.2,43.2-78.2,79.9
		c-20.3,46.5-10,89.8,12.1,132.1c32.9,63.2,86.8,87.6,156.1,90.7c82.3,3.8,158.9,30.2,230.2,71.4c30.3,17.5,59.9,36.2,90.2,53.9
		c41.8,24.4,86.4,33.1,134,22c42.7-9.9,86.4-17.3,124.1-42.1c60.2-39.6,99.2-93.6,110.2-166c2.2-14.7,7.4-28.9,8-44
		c1.5-33.1-4.3-37.3-34.4-47.2c-32.5-10.7-67.6-12.4-101.8-17.1c-56.9-7.9-114.8-9.6-170.2-27.7c-70.7-23.1-122.7-70-166.1-128.2
		c-18.7-25.2-35.3-52-58.1-74c-10.1-9.7-20.6-18.8-36-18"/>
	<path class="st0" d="M1216.9,264.2c-30.7,4.6-57.2,15.7-74.2,44c-14.4,24-13.5,49.1-5.6,74c12.6,39.9,36,74.1,59.6,108.3
		c25,36.3,45.9,75.2,76,108.2c44,48.4,97.9,37.1,124-28.4c6-15,8.4-31.7,10.2-47.9c6.7-62.6-2.5-121.4-43.7-172.1
		c-27.2-33.5-56.2-64.8-98.2-79.8c-14.6-5.2-30.2-7.1-46-6.2"/>
	<path class="st0" d="M3392.5,2716c-35.2,6.9-53.6,33.1-67.6,62.2c-10.6,22-17.8,45.7-22.3,69.9c-5.4,29,4.9,43.3,33.8,54.2
		c24.1,9.1,49.6,12.3,74.2,12.9c59.3,1.2,118.7,10.6,178.1,1c18.3-3,36.2-6,44-26.1c7.7-20-4-36.1-14.5-49.6
		c-19.3-24.9-43.5-45.6-71.6-60.2c-38.9-20.2-75.3-45.4-117.9-58.6c-11.4-3.5-22.4-5.8-34.1-5.6"/>
	<path class="st0" d="M584.4,312.2c-47.9,4.3-92.9,22.5-140.1,29.9c-55,8.7-110.6,8.9-166.1,8c-28.7-0.5-57.1,2.5-84,12.3
		c-56.8,20.7-73.6,59.4-37.8,109.6c27.5,38.6,57.3,75.6,89.7,110.3c28.7,30.7,66.5,42.2,106.1,47.8c55.9,7.8,110.8,19.2,164.2,38.1
		c61.3,21.7,96.2,0.3,122.1-47.8c33.4-62,56.7-128.3,70.6-196.5c11.2-55.2-14-98.7-80.7-109.9c-14-2.4-28-1.8-42-1.9"/>
	<path class="st0" d="M3992.9,2788c-12.3,4-29.9-0.6-35.4,14.3c-5.2,14.2,3,29,9.6,41.6c25.8,48.7,60.4,91.8,89.3,138.5
		c35.1,56.7,82.3,98.3,142.5,125.8c77.2,35.3,124,96,148.2,176.1c22.5,74.3,49.6,147.2,70.1,222.1c11.5,42,36.5,59,87.9,62
		c10.6,0.6,21.5,1.1,32-0.1c39.7-4.5,62.4-14.1,73.3-60.1c15.3-64.8,26.8-130.7,24.9-198c-0.9-30.9-3.8-61.8-16.5-89.9
		c-19.5-43.2-56.8-64.5-101.7-74.3c-30.6-6.6-60.8-15.3-89.9-26.4c-57.4-21.7-91.1-66.8-114.4-121.7
		c-34.5-81.2-89.9-143.4-170-182.2c-46.8-22.7-96.9-28.2-148.1-28"/>
	<path class="st0" d="M2884.1,318.2c-32.4,6.4-64.2,14.9-85.9,42.2c-26.5,33.4-34.2,72-28.3,114c3.2,22.5,4.9,45.7,20.3,63.9
		c23.1,27.4,54.1,25.5,85.9,22.4c54.3-5.4,97.7-33,137.9-66.5c24.7-20.6,51.6-38.7,74.2-61.8c16.8-17.2,17.2-27-2.2-41.8
		c-57.8-44.2-120.1-77-196-72.3c-1.3,0.1-2.7,0-4,0"/>
	<path class="st0" d="M2583.9,338.2c-17.5,3.9-33,10.8-46.3,23.8c-14.5,14.2-17.3,30.6-11.5,48.2c7.1,21.3,25,31.4,45.8,33.6
		c18.2,2,32.5-7.6,42-23.5c9.2-15.5,12.7-32.7,9.7-50c-3.5-20-16.8-31.1-37.7-32.1"/>
	<path class="st0" d="M2147.6,3004.2c-19.2,22-16.2,58.5,8.3,79.7c10.1,8.8,22.2,23.5,37.3,13.7c15.4-9.9,4.5-26-0.2-37.1
		c-9.4-22-15.2-48.2-43.4-56.3"/>
	<path class="st0" d="M858.6,346.3c-24.5,5.2-39.7,24.1-51.4,42.4c-56.4,88.4-99.4,182.7-114.8,287.8c-7.5,50.9,9.8,79.9,60.3,95.6
		c30.9,9.6,63.3,13.6,95.9,14.7c69,2.3,137.2-3.1,204.1-20.4c28.4-7.3,56.6-15.6,78.2-37.8c23.5-24.1,27.8-52.8,21.9-84.1
		c-13.6-72.4-53.8-129-108.3-175.8c-42.1-36.2-83.8-73-129.9-104.3c-16.2-11-33.5-19.5-54-18.1"/>
	<path class="st0" d="M3452.5,3120.3c-31.9,5.4-63.1,10.5-90.4,31.5c-36.9,28.4-63.7,63.5-79.4,106.7c-12.9,35.7-0.3,53.6,37.7,51.9
		c30.1-1.3,59.2-8.5,88-16.2c51.6-13.7,104.3-23.9,154.2-43.7c8.9-3.5,16.4-8.6,24-14.1c44.6-32.4,24.7-73.4-7.8-92.5
		c-30.2-17.7-63.5-17.7-96.3-21.6c-9.3-1.1-18.7-1.4-28-2.1"/>
	<path class="st0" d="M554.4,386.3c-60.5,14.2-116,40.4-171.4,66.9c1.4,12.5,10.1,16,15.5,18.7c41,20.2,73.8,52.3,112.1,76.1
		c39.7,24.7,63.5,12.6,84.1-19.5c10.6-16.6,18.8-34.1,25.7-52.2c19.3-51-6.6-92.4-63.9-90"/>
	<path class="st0" d="M2904.1,386.3c-10.3,3.2-21.5,4.6-30,12.1c-12.3,10.7-17.9,23.8-12,40c5.8,15.9,22.8,26.6,39.9,23.7
		c10.3-1.7,21.4-4.4,29.7-10.2c11-7.6,21.9-18,20.1-33.5c-2-17.1-16.1-23.9-29.9-29.8c-4.7-2-10.6-1.6-15.9-2.2"/>
	<path class="st0" d="M3364.4,386.3c-15.4,2.8-29.9,7.8-42,18.1c-18,15.4-22.5,32.8-11.9,53.9c16.2,32.2,40.9,57.2,69.9,78.1
		c12.9,9.3,25.3,8.8,38.1-1.8c22.2-18.3,37.1-41.5,45.6-68.3c8.8-27.9-4.7-51-33.5-68.2c-20.4-12.2-42.1-11.7-64.2-11.7"/>
	<path class="st0" d="M874.6,462.3c-52.7,15-80.7,54.4-100,102.1c-11.7,28.8-20.5,58.1-16.2,90.1c5.9,43.7,28.4,70.7,70.2,82
		c73.5,19.9,144.2,8.1,212-22.4c50.6-22.8,61-66.9,40.3-115.7c-15.4-36.3-43.2-61.6-74.2-83.9c-12.9-9.3-26.8-17.2-39.9-26.2
		c-27.2-18.7-56.6-29.2-90.1-26"/>
	<path class="st0" d="M4036.9,3248.4c-21.9,4.9-44.3,4.9-66.2,11.6c-55.2,16.8-55,51.6-35,84c40.5,65.6,87.9,127.2,151.7,172
		c47.7,33.5,85.1,21.2,111.7-35.4c45.4-96.8-20.6-216.3-138.1-230.1c-7.3-0.9-14.7-1.4-22-2"/>
	<path class="st0" d="M1957.4,3310.4c-38,0.7-70.6,13.6-91.7,46.3c-11.6,17.9-20.6,37.9-28.1,57.9c-13.8,36.9-26.5,74.3-38.1,112
		c-11.7,38.1-0.7,63.4,33.7,86.1c44.1,29,94.3,41.9,144.2,55.9c38.1,10.7,76.8,19.2,112.1,38.1c65.4,35.2,103.1,88.3,101.6,164.1
		c-0.8,41.7-17,80.2-33.6,118.1c-17.6,40.3-34.8,81-43.6,124.2c-8.6,42-9.1,83.6,29.7,113.9c18.8,14.7,41.2,23.5,64.1,27.7
		c107.2,19.5,207.2,0.3,295.8-64.1c49-35.6,53.4-76.5,22.7-129.9c-13.1-22.8-30.4-41.7-46.6-61.7c-18.1-22.4-35.2-45.1-46-72.1
		c-20.6-51.7-8.7-99.8,16.3-146c12.9-23.9,29.1-46.2,41.5-70.3c16.1-31.2,9.1-49.1-21.6-70c-28.3-19.3-59.3-33.7-88.1-52
		c-51.6-32.7-94.7-74-130.5-123.7c-25.2-34.9-53.3-67.3-87.3-94.8c-49.6-40.2-106.8-54.5-168.5-57.6c-12-0.6-24.2,1.4-36-2"/>
	<path class="st0" d="M314.2,3316.4c-33.1,10-64.4,22.6-84.2,53.9c-22.8,36-18.7,67,8.4,100c9.9,12.1,21.5,22.6,35.7,30.4
		c27,14.8,54.9,16.1,82,3.4c28.4-13.3,52.6-33,70.2-59.7c27.8-42.2,14.6-83.5-27.8-112.2c-25.5-17.3-53.7-16.3-82.2-15.8"/>
	<path class="st0" d="M2055.5,3440.5c-43.5,9.1-65.5,41.2-81.7,78.2c-8.5,19.4,0.5,34.4,23.6,50c38.5,25.9,83.1,36.1,126.2,49.7
		c22,7,44.3,14.5,68,14.3c21.6-0.2,28.2-8.9,22-30c-7-23.6-19.7-44-33.6-64.3c-14.8-21.8-29.8-43.5-46.7-63.5
		c-19.4-22.9-43.7-37.8-75.8-34.3"/>
	<path class="st0" d="M834.6,3452.5c-50.8,8.9-60,18.7-69.4,72.2c-6.6,37.7-4.2,76,5,114c21.8,90.3,108.4,106.3,172.1,79.1
		c39.1-16.7,71.4-44,78.6-91.2c4.1-27-6-50.1-20.7-69.7c-41.2-54.7-91.9-96.6-163.6-104.5"/>
	<path class="st0" d="M3834.8,3454.5c-29.8,7.3-44.2,29-54.2,56c-20.1,54.1-28.9,111.3-45.9,166.2c-7.9,25.4-13.9,51.6-24.4,75.9
		c-36.3,83.8-34.8,168-10.2,254.5c13.7,48.3,31.6,92.2,72.5,124.1c29.8,23.3,77.1,28.5,106.2,9.8c35.5-22.8,48.6-59.4,38.3-102.1
		c-5.3-21.9-14.9-42.2-20.4-64c-12.4-49.1-3.9-93.9,23.9-136.3c24.6-37.6,57.4-68.7,82.4-105.8c27.7-41.1,40.9-85.1,19.3-131.9
		c-19.2-41.6-49.8-75.5-85.5-104.3c-13.1-10.6-26.9-20.3-41.9-28.2c-18.3-9.5-37.3-15.2-58.1-13.9"/>
	<path class="st0" d="M4877.5,506.4c-41.9,11.4-41,84-6.3,104.5c16.3,9.6,31.6,9.4,46,1.1c16.7-9.5,28.2-24.5,26.2-45.6
		c-3-31.6-31.6-58.1-64-60.1"/>
	<path class="st0" d="M602.4,3572.6c-19.8,6-29.4,20.1-29.8,40c-0.4,20,13,32.2,28,41.8c14.9,9.5,32.4,3.7,41.9-11.8
		c15.8-25.7-7.3-68.2-38-70.1"/>
	<path class="st0" d="M3820.8,538.4c-44.8,4.9-75.3,28.5-92,70.1c-17.7,44-5.8,69.5,30.1,87.9c54.6,28.1,114.4,39.1,174.1,50
		c52.9,9.7,106.6,14.5,158.3,31.4c28.6,9.3,49,25.4,65.9,48.7c15.8,21.9,31.6,43.9,51.8,62.3c7.2,6.6,15.1,10.9,24.1,13.9
		c14.3,4.7,28,3.2,35.6-10.3c6.2-11.2,2.7-23.6-5.6-33.8c-16.8-20.5-37.9-36.8-62.2-45.4c-50.5-17.9-83.5-54.4-116.5-94.1
		c-48.1-58-99.9-113.1-165.5-152.7c-29.6-17.9-61.8-26.5-96.1-28"/>
	<path class="st0" d="M894.7,542.4c-31.4,6.1-53.7,22.7-64.1,54c-15.1,45.1,4.2,82,50.2,91.8c31,6.7,61,1.7,88-15.9
		c31.1-20.2,36.2-46.3,16-78c-20.5-32.2-49.6-50.1-88-52.1"/>
	<path class="st0" d="M3076.2,650.5c-63.7,11.4-126,27.7-186.1,52c-77.5,31.3-113.1,91.9-122.4,172.1c-3.4,29.9-1.2,58.6,10.5,86
		c17.9,41.8,52.6,64,95.9,65.4c81.2,2.6,158.7-14.3,228.1-59.3c71.6-46.4,109.5-144.5,81.9-234.1c-15.9-51.7-51.9-78.9-105.9-82.1"
		/>
	<path class="st0" d="M322.2,3708.7c-57.8,10.9-93.3,50.3-119.4,98.4c-15.1,27.9-13.4,59.5,3.5,87.6
		c40.5,67.3,87.9,129.4,150.4,177.7c26.5,20.5,50.5,25.1,79-0.1c41.6-36.8,75.3-81.5,96.2-133.6c13.4-33.5,9-66.5-11.3-98.1
		c-37.4-58.2-89.9-97.3-152.5-123.6c-13.6-5.7-28.7-8.7-43.9-8.4"/>
	<path class="st0" d="M2884.1,3724.7c-45.3,12.5-53.2,44.6-56,82.1c-3.7,48.6,0.8,97.7-7.9,146.1c-5.8,32-16.5,62.6-23.9,94.1
		c-5.5,23.3-7.2,47.6,2.2,69.8c15.9,37.7,49.4,59.5,97.7,54.2c61.3-6.8,106-40.5,142.1-88.1c14.5-19.1,18.6-42.3,13.3-63.9
		c-12.4-50.9-13.9-102.8-19.3-154.3c-7.7-72.7-48.7-119.7-104.1-138c-13.6-4.5-28-1.5-42-2.1"/>
	<path class="st0" d="M3426.5,702.5c-11.4,12.8-7,23.8,2.8,35.1c15.6-14.1,15.3-18.6-0.8-35.1"/>
	<path class="st0" d="M3054.2,704.5c-52.3,9.2-105,18-152,44.3c-55.3,31-77.9,79.8-65.7,131.7c9.5,40.4,36.8,58.5,71.6,61.4
		c59.1,4.8,116-7.2,168-37.3c40.8-23.6,63.8-60.2,67.4-106.1c3.3-41.2-17.9-96-87.4-94"/>
	<path class="st0" d="M1807.3,3804.8c-26,3.9-50.9,9.5-70.1,29.9c-32.2,34.2-34.7,74-21.7,116.1c10.8,35.2,29,66.5,53.7,94.2
		c22.9,25.7,54.5,31.8,87.9,7.4c36.7-26.8,65.6-62.6,83.6-104c17.6-40.7,9.8-77.8-29.1-107.8c-30.3-23.4-64.5-34.3-102.2-35.9"/>
	<path class="st0" d="M2599.9,3808.8c-41.7,10.5-67.8,36.2-72,72.1c-5.1,44.5,19.1,79.8,52,98c28.9,16.1,51.6,13.1,74-10
		c47.1-48.6,24.6-128.1-23.9-152.2c-9-4.4-18.6-5.8-28.1-7.9"/>
	<path class="st0" d="M4845.5,3812.8c-8.7,4-18.6,4.5-26.2,11.8c-10.3,9.8-14,23.7-5.7,34.1c30.9,38.7,84.1,57.3,135.9,43.8
		c7.2-1.9,14.4-5.8,20.2-11.6c12.7-12.8,14-23.3,1.8-36c-26-27.3-59.6-38.1-96-42c-9.2-1-18.7-0.1-28-0.1"/>
	<path class="st0" d="M364.3,3838.8c-32.8,11.6-43.8,28-35.8,58c9.9,36.9,38,57.3,65.8,54.1c33.8-4,51.8-52,29.8-81.8
		c-13.9-18.8-33.1-30.6-57.8-30.2"/>
	<path class="st0" d="M1821.3,276.2c-16.7,2.7-34.4,2.7-49.8,8.5c-40.4,15.3-57.6,47.6-58.2,89.5c-0.8,54.3,5.8,108.3,21.1,159.8
		c14.1,47.6,46.3,61.7,100.9,57.9c60.1-4.2,115.9-28.5,174-42.1c46.4-10.9,92.1-20,140.3-15.9c44.7,3.8,79.2,21,102.2,60.4
		c23.7,40.8,42.4,84.3,67.8,124.2c31.4,49.4,70.8,87,132.2,94c30.7,3.5,61.5,4.2,92-0.2c42.2-6.1,77.1-58.7,66.1-101.8
		c-7.3-29-30.6-40.9-54-54.3c-85.6-49.2-176.7-85.5-270.3-115.9c-44.3-14.4-68.9-37.3-66.6-92c1.6-38.3,8.2-75.9,10.9-114
		c0.2-2.2,1.4-5.3,1.6-8c2-31-7.1-40.9-38-37.8c-49.3,4.9-98.7,7.2-148.1,5.7c-49-1.5-97.5-7.7-146.1-13.7
		c-25.2-3.1-50.6-4.4-76-4.2"/>
	<path class="st0" d="M1040.8,860.6c-35.4,2.7-70.7,5.7-106.1,7.9c-36.2,2.3-72.5,5.2-108,12.4c-64.3,13-106.7,53.1-134.5,111.6
		c-22.5,47.6-49.8,92.7-89.9,128.1c-27.5,24.3-58.4,44.4-88.1,66c-67.7,49.2-84.3,117.2-78.5,196.3c4.5,61.2,9.7,122.4,3.5,184.2
		c-3.3,32.9-8.9,66.3-3.2,100c4.8,28.7,21.4,45.9,46.2,58.2c13,6.4,26.6,11.8,40.2,15.4c51.1,13.7,91.3,44.4,130.1,78.3
		c49.8,43.6,90.2,96.7,142.1,138.2c33.6,26.9,49.7,26,80,2c29.3-23.2,53.6-51.8,81.6-76.5c35.3-31.1,74.4-56.5,112.3-83.9
		c53.1-38.4,106.3-77.3,140.5-135.6c4.6-7.8,8.8-15.5,12-24c17.4-46.3-1.2-64.2-42.2-67.6c-57.9-4.8-116.1-5.5-174.1-8.6
		c-94-5-176.8-34.5-233.9-114.2c-53-74-37.1-183.4,19.9-231.9c34.5-29.3,76.6-41.2,120.1-47.8c25.1-3.8,50.6-5.4,76-6.1
		c57.4-1.7,115.1,3.5,172.2-8c16.5-3.3,33.4-6.9,47.7-14.8c22.2-12.4,34.4-34.2,33.9-59.5c-1-56.5-9.9-112-38-161.9
		c-20.5-36.4-56-50.8-95.7-56.2c-21.3-2.9-42.7-1.9-64-2"/>
	<path class="st0" d="M2295.7,3932.9c-35.9,10.5-55,39-74.2,67.9c-22.4,33.6-38,69.4-39.8,110.2c-2.6,57.6,36.4,86.1,76.1,91.9
		c47.8,6.9,92.8,1,134.3-27.4c50.8-34.8,60.2-81.6,25.7-134.4c-22.4-34.3-50.3-64-81.8-90.3c-11.4-9.5-23.7-15.6-38.2-17.8"/>
	<path class="st0" d="M1026.7,926.7c-30.4,5.8-61.6,2.9-92.1,7.9c-37.7,6.2-76,11.8-99.8,46.4c-14.1,20.5-28,41.8-30.3,67.8
		c-1.9,20.6,5.2,31.5,28.3,39.4c13.6,4.7,28.7,6.8,43.8,6.9c46.7,0.3,93.4-1.8,140.1,1.5c22.3,1.6,44.6-0.6,66-7.8
		c34.5-11.7,49.8-32.9,45.6-69.9c-1.2-10.7-4.4-21.5-7-32.2c-9-36.7-34.8-51.7-68.6-57.8c-7.9-1.4-16-1.4-24-2.1"/>
	<path class="st0" d="M3338.4,3986.9c-34.1,4.8-58.9,25.3-79.8,50.2c-25,29.8-22.9,63.8-10.1,97.8c27.6,73.5,59.7,144.9,104,210.1
		c12.6,18.5,27.6,35.3,46.1,47.8c22.9,15.4,46.9,19,74.1,6.8c35.9-16.2,68.3-36.7,98-62.4c33-28.7,43.4-68.8,24-116.3
		c-9.5-23.3-21.4-45.5-38.4-63.8c-49.7-53.8-100.7-106.3-158.1-152.1c-16.5-13.2-36.3-19.3-57.9-18.2"/>
	<path class="st0" d="M3816.8,946.7c-36,6.7-60.6,29.6-84.4,55.7c-30.4,33.2-55.8,70.5-87.5,102.6c-34.5,34.9-76.7,49.4-124.2,54.1
		c-36.2,3.6-73,5.8-106.1,23.8c-49.3,26.8-72,72.3-81.5,124.2c-9.8,53.7-8.3,107.8,11.5,160c4,10.7,8.4,21.1,15.9,30.1
		c19.4,23,42.1,27.2,66,9.7c15.2-11.1,28.2-25,40.2-39.8c34.7-42.5,77.2-77.7,112-120.1c12.6-15.4,26-30.2,37.9-46.1
		c42.9-57.7,102.1-90.5,168.1-114.3c33.2-11.9,65.2-26.4,94.4-47.4c52-37.4,56.5-80.1,29.7-130.4c-16.3-30.6-37.8-55.3-74.1-61.9
		c-5.2-0.9-10.7-0.1-16-0.1"/>
	<path class="st0" d="M1595.2,1102.8c-29.7,5.7-55.3,21.2-82.1,34c-38.7,18.4-79.8,30.1-120,44.2c-52.4,18.3-71.1,38-74.1,102
		c-1.6,33.9,2,67.7,10.7,99.9c14.3,53.1,40.6,74.3,93,53.1c81.6-33,157.3-76.7,198.5-161c17.9-36.6,31-74.5,30.2-116.1
		c-0.2-13.4-3.1-26.6-8.7-37.7c-9-17.7-26.8-20.6-45.4-18.3"/>
	<path class="st0" d="M3108.3,1118.8c-40.5,6.4-80.7,14-120.1,25.8c-23.2,7-45.6,15.2-65.9,28.3c-36.5,23.7-43.2,62.2-25.9,103.9
		c10.5,25.3,29.3,45.1,50.2,61.7c30,23.9,63,44,97.9,60.2c52.2,24.3,93.6,13.2,123.6-36c35.8-58.7,49.4-123.1,38.5-191.9
		c-4.9-31.2-22.1-48.2-64.1-51.9c-10.6-0.9-21.3-0.1-32-0.1"/>
	<path class="st0" d="M3394.5,4163c-22.3,7.3-30.6,23.7-30.1,46c0.9,38,16.8,69,46.5,91.6c12.8,9.7,29.3,12.2,45.8,2.7
		c20.7-11.8,30-29.5,31.9-52.3c3.3-38.9-48.9-95.7-92.1-88.1"/>
	<path class="st0" d="M924.7,4191c-90.4,6.8-146,93.4-157.3,164.2c-10,62.6,13.8,117,61.8,157.3c32.8,27.6,60.3,20.1,91.3-7.6
		c38.3-34.3,65.4-77.9,94.3-119.8c12.1-17.5,23.4-35.3,30.3-55.9c17.1-51.1,8.9-77.4-34.2-108.3c-25.4-18.2-53.1-28.4-84.2-29.9"/>
	<path class="st0" d="M4197.1,4249.1c-46.9,7.2-76.4,34.1-85.5,80.2c-5,25.4,2,51.2,13.8,73.8c40.6,77.3,82.9,153.8,131.9,226.2
		c9.5,14.1,22.4,25.4,35.7,36.3c30.8,25.1,65.8,26.7,100,13.4c102.1-39.7,189.4-97.2,234.6-203.6c22.3-52.4,4.6-102.2-39.9-130.8
		c-39.8-25.5-84.2-36.4-128.6-47c-74.8-17.8-149.3-37.5-226-47c-11.5-1.4-22.8-0.4-34.1-1.6"/>
	<path class="st0" d="M3080.2,4277.1c-66.2,17.3-120.9,53.3-168.2,102c-30.7,31.6-37.5,70.3-27.2,110c14.7,56.8,5.1,109-18.8,160.3
		c-23.1,49.6-39.8,101.5-41.3,156.1c-1.8,62.4,23.7,112.8,81.5,141.9c56.4,28.4,116.2,45.4,180,41.9c36.1-1.9,66.4-20.7,96.1-39.7
		c45.4-29,87.3-62.8,133.6-91c57.7-35.1,109.5-29.6,162.8,6.6c21,14.2,43.3,26.5,65.4,39c37,21.1,86.6,15.2,119-14.2
		c51.6-46.8,89-102.8,112.9-166.9c25.2-67.5-8.8-109.8-71.4-123.7c-58.3-12.9-111.8,5.4-164,28.1c-26.5,11.5-51.7,26.1-78.2,37.6
		c-36.3,15.6-70.6,11.4-102-13.7c-53.5-42.9-79.7-100.7-94.4-166.1c-14.1-62.6-37.5-121.2-83.7-168.2c-27.6-28.1-60.3-42.8-100.1-40
		"/>
	<path class="st0" d="M4309.1,4317.1c-14.8,2.7-30.4,3.8-43.9,10.3c-40,19.2-50.7,50-41.9,93.8c12.9,64.6,47.2,118.1,98.6,157.2
		c39.9,30.3,86.6,21.1,127-3.6c42-25.6,77.2-60.1,104.2-101.6c25.2-38.8,11.4-75.5-19.8-96c-48.7-32.2-103.6-46.7-160.2-55.8
		c-20.5-3.3-41.2-5.3-62-4.1"/>
	<path class="st0" d="M1769.3,3742.7c-65.2,7.5-107.6,42.8-123.6,106.2c-9.8,38.8-4.3,78.1,7.8,115.9
		c11.5,36.2,28.3,70.6,35.8,108.1c10.4,51.5,15.9,102.3-32.2,139.9c-22.5,17.7-49.3,27.9-75.8,38.4
		c-59.8,23.5-122.7,37.6-182.2,61.9c-32.2,13.2-63.8,28.5-81.8,60.2c-22.7,40-12.4,70.6,33.8,74.6c80.7,6.9,160.9,20.4,242.1,21.2
		c31.1,0.3,61.4-6.7,89.9-18.3c45.1-18.4,68.8-55,78.2-101.7c4.1-20,6.7-40.4,12.3-60c11.3-39,34.5-70,65.6-96.4
		c73.3-62.2,137-132.9,186.3-215.9c11.5-19.3,20.9-39,24.5-62c6.5-42.3-9-74.6-42.6-97.9c-70.8-49-148.7-76.9-236-74.3"/>
	<path class="st0" d="M2419.8,1122.8c-105.8,11.9-159.7,84.3-200.1,172.2c-12.2,26.6-21.7,55-17.5,83.9
		c7.7,52.5,41.8,72.7,93.5,81.9c29.7,5.3,60,2.6,90,0.3c57.6-4.4,115.3-4.4,172.1,6.4c51,9.7,90.4,39.2,122.2,79.6
		c31.4,39.8,60.8,81.2,97.9,116.3c29.6,27.9,62.5,49.9,102.2,59.8c55,13.6,111-1.1,145.8-44.1c19.2-23.7,18.7-50.5,6.3-77.9
		c-15.6-34.4-41.3-60.8-68.3-85.8c-36.7-34.1-74.7-66.7-111.9-100.3c-46-41.5-76.7-93.2-100.4-149.9c-10.6-25.3-22.9-50.2-39.8-72.1
		c-27.2-35.4-67-48.2-108.1-53.4c-60.4-7.6-120.8-17.9-182-16.7"/>
	<path class="st0" d="M4357.2,4385.2c-38.2,13.6-49,32.1-36,62.1c11,25.6,30.6,39.3,58.1,42c30.3,3,53.1-10.9,69.7-34.3
		c13.3-18.8,1.1-42-25.5-58.1c-20.4-12.3-42.1-11.7-64.2-11.7"/>
	<path class="st0" d="M3068.2,1198.9c-15.3,5.2-30.7,9.9-44.2,19.9c-24.9,18.4-29.3,43.9-9.8,68.1c17.4,21.6,37.7,38.9,67.9,38.1
		c2.7-0.1,5.4,0.4,8-0.1c27.1-4.4,53-43.9,50-76c-3-32.5-23.3-50-58-50c-4,0-8,0-12,0"/>
	<path class="st0" d="M2441.8,1204.9c-39.3,4.9-74.5,18.5-97.8,52.2c-27.2,39.4-23.8,73.1,6.1,93.4c15.3,10.4,35,15.3,53.7,16.2
		c77.5,3.6,154.7,12.5,232.2,16.1c39.5,1.8,57.3-20,47.8-57.7c-14.6-57.8-49.4-96-109.8-108.3c-43-8.8-86.4-12-130.1-11.8"/>
	<path class="st0" d="M3110.3,4579.3c-24.5,9.9-35.2,33-50,52.1c-21.4,27.6-39.6,57.4-55.7,88.2c-13.7,26.2-20.6,55.6-1.8,81.5
		c20.3,27.9,50.7,41.6,85.5,38c51.4-5.2,87.6-34.1,109.8-79.8c12.3-25.2,9.9-53.1-0.4-77.6c-13.8-32.8-33.2-63.1-59.2-88.4
		c-7.5-7.3-15.8-12.2-26.1-13.9"/>
	<path class="st0" d="M954.7,1218.9c-26.1,4.9-52.3,9.2-76,22c-79.7,43.3-86.5,140.3-23.8,201.9c35,34.3,79.5,48.5,127.8,52.5
		c38.1,3.2,76,6.1,114.1-0.1c63.1-10.3,118.2-35.7,131.8-110.2c7.7-42.2,3.6-84.1-22.2-119.7c-21.3-29.4-55.3-37.4-89.6-42.4
		c-53.2-7.7-106.8-2.4-160.1-4"/>
	<path class="st0" d="M1943.4,1226.9c-13.5,5.1-22.6,15.9-32,26.1c-38.2,41.2-75.7,83.1-113.9,124.3
		c-51.6,55.6-85.6,122.2-114.6,191.8c-12.2,29.1-25.4,58.1-43.7,84.2c-30.2,43.3-75.1,65.3-122.1,84c-88.6,35.2-177,71.2-262,114.4
		c-45.1,22.9-88.9,49-116,93.9c-25.8,42.8-35.6,90.4-31.7,139.9c1.6,20.1,12.5,38.1,25.4,54.1c37,45.6,85.9,76.4,134.2,107.9
		c23.3,15.2,47,29.5,71.5,42.9c44.5,24.3,90.1,30.5,138.4,19.2c47.5-11.1,95.6-20.8,144.1-21c44.5-0.2,88.7,7.2,132.2,18.8
		c52,13.8,101.4,34.8,152.1,52.3c42.8,14.7,87.3,23.2,132.1,27.7c43.8,4.4,80.7-16.4,116.1-39.5c36.9-24.1,71.9-51.4,112.1-69.9
		c79.5-36.7,158.4-29.8,236,6c53.8,24.8,95.8,66.1,140.3,103.8c40.6,34.3,70.6,42.4,113.6,13.6c40.2-27,69.4-76.8,50.4-141.6
		c-10.3-35.3-21.6-70.3-29.7-106.1c-14.6-64.5,0.5-123.1,39.6-176.1c11.5-15.6,20.5-32.7,24-52c4.6-25.7-5.5-48.6-22.3-65.6
		c-64.4-65-122.3-136.6-191.9-196.3c-30-25.8-65.4-39.9-105.8-42.7c-48.9-3.4-96.6-4.2-144.3,11.8c-59.5,20-90.4,60.7-99.9,120.7
		c-7.6,47.9-7.6,96.9-20,144.1c-20.9,79.4-68.3,131.2-152.1,144c-30,4.6-60,2.3-90.1-1.7c-52.7-7.2-104.6-16.3-152.2-42.1
		c-34.3-18.6-64.7-41.4-83.9-76.2c-34.1-61.7-15.1-131.2,41.8-174.2c48.6-36.8,105-59.9,156.2-92c19.8-12.4,39.5-24.7,54.3-43.8
		c21.3-27.4,21.8-49.9,5.7-78.2c-14.7-25.9-35.3-47.5-52.3-71.8c-38.3-54.7-43.7-113.6-27.6-176.4c3.1-12.1,7.5-23.9,9.7-36.1
		c2.9-16.1-1.5-20.3-19.8-22"/>
	<path class="st0" d="M586.4,4625.4c-65.2,19.5-110.2,66.2-147,118.9c-26.1,37.4-28,76.4,13,117.2c25.5,25.4,55.4,45.1,88.1,59.9
		c36.3,16.4,71.1,10.2,99.7-16.1c50.8-46.7,73-104.5,58.3-173.8c-12.1-56.7-56.5-99.1-110-106.1"/>
	<path class="st0" d="M978.7,1282.9c-18.6,5-37.6,7.6-54.3,19.6c-28.2,20.2-35.9,58.3-13.6,84.3c16.1,18.7,36.9,28.8,61.8,32.5
		c39,5.8,78,12.2,116.1-2.6c44.3-17.2,58.9-53.5,46-85.8c-10.4-26.2-32.6-37.6-58-44c-31.7-8-64-2.6-96-4.1"/>
	<path class="st0" d="M3900.8,1335c-26.8,4.6-53.5,8.6-78.2,21.8c-55.5,29.7-82.6,74.6-84.6,138.3c-2.6,85.3,14.2,167,36.7,248.2
		c16,57.8,19.2,117.8,31.8,176.2c7.1,33,15.5,65.4,30,96.1c8.2,17.4,18.8,32,34,44.2c20.5,16.4,45,20.9,67.9,3.3
		c40-30.7,69.9-70.7,92.2-115.7c21.9-44.2,8.1-84.7-18.1-121.8c-22.4-31.7-50.9-58.3-77.9-86.2c-13.7-14.1-26.1-29.1-35.9-46.1
		c-28-48.9-16.9-95.7,14.1-140c21.8-31.1,49.6-57.1,74.2-85.9c10-11.8,17.6-24.6,23.6-38.3c15-34.4,0.9-63.3-37.9-80
		c-22.4-9.7-45.9-13.3-70.1-14"/>
	<path class="st0" d="M3604.6,4689.4c-26.8,7.4-52.4,17.5-69.9,40.2c-21.4,27.7-9.4,66.8,25.8,87.9c34.1,20.4,75.3,8.9,100-28.1
		c7.4-11,13.1-22.8,16.2-36c9.1-39.7-15.4-62.7-48.1-64c-7.3-0.3-14.7,0-22,0"/>
	<path class="st0" d="M2605.9,4691.4c-18.2,5.4-37.3,7.9-52.2,21.9c-16.9,15.8-18.9,30.9-3.8,48.1c13.4,15.3,29.8,25.6,49.9,30.2
		c24.4,5.7,45.4-1.9,58.1-22.2c11.6-18.5,10.1-45.9-1.8-62.2c-12.6-17.2-30.3-16.1-48.2-15.9"/>
	<path class="st0" d="M2059.5,4705.4c-24.8,4.8-48.2,14-72.2,21.7c-19.9,6.4-36.2,17.2-49.9,32.4c-20,22.3-22.8,48.1-14.1,76
		c8.6,27.5,30.8,38.4,56.1,39.4c45.4,1.9,91.1,5.8,136.2-7.1c26.6-7.6,41.2-22.9,46.2-50.3c8.1-44.1-20-103.7-68.4-111.9
		c-10.4-1.8-21.3-0.3-32-0.3"/>
	<path class="st0" d="M1447.1,4725.4c-28.7,7.7-51,22.8-62.2,52c-12.2,31.9-7.6,61.7,12.5,87.9c21.5,28.1,50.2,38.4,85.8,28.5
		c29.5-8.2,58.7-16,80-40.3c30-34.3,34.4-100.6-34-118.4c-26.5-6.9-52.9-10.9-80.1-9.7"/>
	<path class="st0" d="M1839.3,1515.1c-41.7,9.4-59.5,40.1-67.8,78.1c-5.4,24.9,12.9,47.3,37.7,45.6c33.8-2.3,64.9-15.2,85.4-42.2
		c19.4-25.4,10.7-58.3-25.5-75.4c-8.6-4-17.8-7.7-27.9-6.2"/>
	<path class="st0" d="M654.5,1523.1c-31.5,12.4-33.8,41-35.6,68.1c-2.7,40.5,12.8,76.5,33.7,110c33.3,53.2,71.3,102.4,124,138.1
		c37.3,25.3,77,27.5,115.9,5.7c57.7-32.3,109-73.4,153.9-122.1c2.9-3.1,6.4-6.9,8.7-11.5c11.8-23.6,6.9-40.2-16.3-54.3
		c-29.7-18.1-63.6-23.4-96.3-31.4c-77.4-18.8-150.8-47.5-222.1-82.5c-20.2-9.9-40.2-21.4-64-20.2"/>
	<path class="st0" d="M2111.5,1683.2c-70.2,18.3-136.4,45.8-198.2,83.9c-19.5,12-35.7,27.3-47.7,46.3c-26.1,41.3-16.4,95,28.3,121.1
		c65.7,38.3,138.8,52.6,213.4,34c58.1-14.5,88.6-63.8,96.3-125.2c3.8-30.2,3.5-60.5-4.2-90c-12-46.3-23.4-76.1-85.9-70.1"/>
	<path class="st0" d="M4397.2,1739.3c-39.2,8.8-44.1,35.7-35.1,69.8c16.5,63.3,54.4,108,123.1,120.7c23.3,4.3,46,12.2,70.1,11.5
		c29.1-0.8,51.8-12.4,64-40c12.1-27.5,11.3-54.4-5.9-80c-16.1-24-40.3-37.7-66.3-45.4c-42.3-12.5-83.7-28.8-127.9-35
		c-6.7-0.9-13.4-1.3-20.1-1.7"/>
	<path class="st0" d="M3076.2,4337.2c-52.1,17.7-87.6,50.8-100.2,106c-4.5,19.6-3.3,39.5,0.8,57.9c11.7,53.3-3.2,99.8-30.6,144.3
		c-21.3,34.6-41.4,69.3-50.5,110c-14,63.1,9.7,117.3,68.4,140.4c46.7,18.3,93.3,34,144.2,19.8c23-6.4,44-17.1,64.1-29.9
		c38.3-24.5,72.4-53.7,102.1-88.1c29.2-33.8,33.6-70.4,13.9-110.1c-11-22.2-22.1-44.4-34.1-66c-23.7-42.5-35.2-88.4-42.1-136.1
		c-4.5-31-12.5-60.7-29.3-88.4c-24.3-40.2-55.2-65.1-104.6-59.7"/>
</g>
</svg>
