<svg id="svg3678" xmlns="http://www.w3.org/2000/svg" viewBox="0 0 396 396"><defs><style>.cls-1{fill:#fff;}</style></defs><title>BE_LOGO</title><rect width="396" height="396"/><path id="Behance" class="cls-1" d="M323.4,129.07H246.77V110H323.4v19.07Zm-128,78.46c5.14,7.7,7.34,16.87,7.34,27.87a56.62,56.62,0,0,1-8.44,30.43,53.22,53.22,0,0,1-13.56,15c-6.24,4.76-13.2,7.7-21.64,9.53A125.31,125.31,0,0,1,132.37,293H46.57V102.3h92c23.1.37,39.6,7,49.5,20.17,5.87,8.06,8.8,18,8.8,29,0,11.74-2.93,20.9-8.8,28.24-3.3,4-8.07,7.7-14.67,11A42.61,42.61,0,0,1,195.43,207.53ZM90.57,177.47H130.9c8.43,0,15-1.47,20.17-4.77s7.7-8.8,7.7-16.87c0-8.8-3.3-14.66-10.27-17.6a77.11,77.11,0,0,0-22.37-2.93H90.57Zm71.86,55c0-9.9-4-16.87-12.1-20.54-4.4-2.2-11-3.3-19.06-3.3H90.2v51h40.33c8.44,0,14.67-1.1,19.44-3.3C158.4,252.27,162.43,244.2,162.43,232.47Zm189.2-30.8c1.1,6.23,1.47,15.4,1.1,27.13H253.37c.36,13.57,5.13,23.47,14.3,29a37.84,37.84,0,0,0,19.8,5.13c8.06,0,14.66-2.2,19.8-6.23,2.93-2.2,5.13-5.5,7.33-9.54h36.3c-1.1,8.07-5.5,16.5-13.2,24.57-12.1,13.2-29.33,19.8-51.33,19.8-18.34,0-34.1-5.5-48-16.87s-20.9-29.33-20.9-54.63c0-23.83,6.24-41.8,18.7-54.63s29-19.07,48.77-19.07a83.09,83.09,0,0,1,32.27,6.23,56.38,56.38,0,0,1,23.46,20.17A66.18,66.18,0,0,1,351.63,201.67ZM316.07,205c-.74-9.54-3.67-16.5-9.54-21.64C301,178.57,293.7,176,285.27,176c-9.17,0-16.14,2.57-21.27,7.7s-8.07,12.1-9.53,21.27Z" transform="translate(0 0)"/></svg>