<?xml version="1.0" encoding="utf-8"?>
<!-- Generator: Adobe Illustrator 25.2.3, SVG Export Plug-In . SVG Version: 6.00 Build 0)  -->
<svg version="1.1" id="svg3678" xmlns="http://www.w3.org/2000/svg" xmlns:xlink="http://www.w3.org/1999/xlink" x="0px" y="0px"
	 viewBox="0 0 396 396" style="enable-background:new 0 0 396 396;" xml:space="preserve">
<path d="M0,0v396h396V0H0z M244.5,344.4c-7.7,1.5-10.3-3.3-10.3-7.3c0-5.1,0.4-21.3,0.4-41.4c0-13.9-4.8-23.1-10.3-27.9
	c33.7-3.7,68.9-16.5,68.9-74.4c0.2-15-5.3-29.6-15.4-40.7c1.5-3.7,7-19.1-1.5-40c0,0-12.4-4-41.4,15.4c-24.7-6.9-50.8-6.9-75.5-0.1
	c-28.6-19.4-41.4-15.4-41.4-15.4c-8.1,20.9-2.9,36.3-1.5,40c-10.1,11.1-15.6,25.7-15.4,40.7c0,57.9,35.6,71.1,68.9,74.8
	c-4.4,3.7-8.1,10.3-9.5,20.2c-8.8,4-30.4,10.6-44-12.5c0,0-8.1-14.3-23.1-15.4c0,0-14.7-0.4-1.1,9.2c0,0,9.9,4.4,16.9,22
	c0,0,8.8,27.2,51,18c0.4,12.8,0.4,24.6,0.4,28.2c0,4-2.6,8.8-10.3,7.3C90.2,324.9,46.9,268.4,46.9,201.7
	c0-83.4,67.6-151.1,151.1-151.1c83.2,0,151.1,67.8,150,150.3C348,267.7,304.7,324.1,244.5,344.4z"/>
</svg>
