<svg id="Livello_1" data-name="Livello 1" xmlns="http://www.w3.org/2000/svg" viewBox="0 0 849.22 849.22"><defs><style>.cls-1{fill:#010101;}</style></defs><title>IconaEMAIL</title><path class="cls-1" d="M429.5,342.26c-49.14,1.54-91.6,44.25-92.92,93.47-1,37.53,22,65.65,58.92,72.15,47.29,8.32,97.2-29.81,106.51-81.38C510.43,379.81,476.85,340.78,429.5,342.26Z" transform="translate(-1.17 -1.01)"/><path class="cls-1" d="M425.78,1C191.28,1,1.17,191.12,1.17,425.62S191.28,850.23,425.78,850.23s424.61-190.1,424.61-424.61S660.29,1,425.78,1ZM671,552.16c-17.94,36-47.6,55.16-87.41,54.32-40.41-.85-70.14-21.29-86.06-58.85-4.84-11.42-7.59-13-19-6.56C409.33,580.47,329,559,296.7,493.46c-33.88-68.84,3.32-160.07,79.49-191.64,48.68-20.17,95.44-16.33,137.7,17.84,3.27,2.65,5.33,3.58,11.29,2.29,15.18-3.28,30.8,3.31,46,6.86,6.36,1.49,2.16,8.62,1.37,12.91q-13.75,74.38-28,148.66c-2.24,11.79-4.43,23.58-.19,35.34,6,16.64,22.18,28.88,39.75,28.83,19.22-.06,33-9.58,40.86-27.09,37.82-84,29.26-163.38-27.67-235.35C536,214.7,432.06,189.33,341.55,226.56,252.63,263.13,196.39,355,204.8,449.87A222.5,222.5,0,0,0,381.32,648.49a183.38,183.38,0,0,0,33.88,4.07c8.84.18,11.3,3.37,10.68,11.56-.57,7.56-1.06,15.34.08,22.76,2.6,17-5.25,19.12-20,18C267.77,694.23,156.15,579.2,152.26,442.72c-4.08-143.41,97.52-264,237.84-282.29,164-21.39,309.35,105.9,309.32,287.62C699.28,473.81,689.91,514.15,671,552.16Z" transform="translate(-1.17 -1.01)"/></svg>