<svg id="Livello_1" data-name="Livello 1" xmlns="http://www.w3.org/2000/svg" viewBox="0 0 850.39 850.39"><defs><style>.cls-1{fill:#010101;}.cls-2{fill:#fff;stroke:#fff;stroke-miterlimit:10;stroke-width:4px;}</style></defs><title>IconaCELL</title><path class="cls-1" d="M425.2,0C190.37,0,0,190.37,0,425.2S190.37,850.39,425.2,850.39,850.39,660,850.39,425.2,660,0,425.2,0Z"/><path class="cls-2" d="M545.87,138.39H304.52a41.75,41.75,0,0,0-41.74,41.78V670.26A41.73,41.73,0,0,0,304.52,712H545.87a41.76,41.76,0,0,0,41.74-41.74V180.17A41.78,41.78,0,0,0,545.87,138.39ZM365.64,163.77H484.79c3,0,5.45,4.49,5.45,10s-2.44,10.08-5.45,10.08H365.64c-3,0-5.43-4.52-5.43-10.08S362.61,163.77,365.64,163.77ZM470.11,686.34H379.63c-2.3,0-4.13-9.62-4.13-21.47s1.83-21.42,4.13-21.42h90.48c2.29,0,4.15,9.58,4.15,21.42S472.4,686.34,470.11,686.34Zm-176-69.4V208.89H556.34V616.94Z"/></svg>