<svg id="Livello_1" data-name="Livello 1" xmlns="http://www.w3.org/2000/svg" viewBox="0 0 850.39 850.39"><defs><style>.cls-1{fill:#010101;}</style></defs><title>IconaTELE</title><path class="cls-1" d="M425.2,0C190.37,0,0,190.37,0,425.2S190.37,850.39,425.2,850.39,850.39,660,850.39,425.2,660,0,425.2,0ZM614.76,591.7c-5.25,4.91-10.94,9.38-16,14.48C568.27,636.91,530.5,645.41,489,641.91c-29.39-2.47-55.84-14.09-80.16-29.8C335.59,564.79,279.5,501.87,241.59,423.19c-12.38-25.69-19-53.05-19-86.63.71-30.16,9.44-62.51,32.62-89.63,11.19-13.09,24.92-23.62,38.72-33.74,11.49-8.42,25-8.41,35.44,1,26.2,23.53,45.25,52.24,53.67,86.73,3.54,14.52-1.43,28-13.45,37.95-8.52,7.05-17.19,13.93-25.82,20.86-15.81,12.68-19.71,25.05-14.05,44.64A94.83,94.83,0,0,0,340,427a310.67,310.67,0,0,0,78.82,87.81c3.08,2.33,6.27,4.56,9.56,6.59,21.62,13.34,37.9,11.42,55.89-6.6,5.08-5.09,9.81-10.54,15-15.51,16.7-16,37.14-19.71,57.09-8.07a240.78,240.78,0,0,1,62.82,53.61C632.89,561.15,630.53,576.93,614.76,591.7Z"/></svg>