<?xml version="1.0" encoding="utf-8"?>
<!-- Generator: Adobe Illustrator 25.2.3, SVG Export Plug-In . SVG Version: 6.00 Build 0)  -->
<svg version="1.1" id="Livello_1" xmlns="http://www.w3.org/2000/svg" xmlns:xlink="http://www.w3.org/1999/xlink" x="0px" y="0px"
	 viewBox="0 0 396 395.9" style="enable-background:new 0 0 396 395.9;" xml:space="preserve">
<path d="M0,0v395.9H396V0H0z M117.6,334.9c0,1.8-0.3,2.6-2.4,2.6c-18.1,0-36.2,0-54.3,0h-2.3l0,0V150.8c0-2.8,0-2.8,2.9-2.8h53.4
	c2.8,0,2.8,0,2.8,2.8C117.5,212.2,117.5,273.5,117.6,334.9z M88,122.8c-0.3,0-0.6,0-0.8,0c-18.7-0.3-33.7-15.7-33.4-34.4
	C53.5,69.8,69.3,54,88,54.1c0.1,0,0.1,0,0.2,0c18.9,0,34.3,15.4,34.2,34.4C122.3,107.8,107.5,122.7,88,122.8z M337.9,334.9v2.5
	l-0.1,0.1h-56.7c-2.7,0-2.7,0-2.7-2.6c0-33.8,0-67.7-0.1-101.6c0.1-7.6-1.3-15.2-4.2-22.3c-4.1-9.2-11.2-14.1-21.2-15.2
	c-5.7-0.7-11.5-0.2-17,1.4c-9.6,2.8-15.7,9.3-19,18.6c-2.3,6.2-3.5,12.7-3.5,19.3c-0.1,33.2-0.3,66.4-0.4,99.6c0,2.9,0,2.9-2.8,2.9
	c-17.9,0-35.8-0.1-53.7,0c-1.9,0-2.6-0.5-2.6-2.5c0-61.5,0-123,0-184.5c0-2.5,0.1-2.5,2.5-2.5H208c2.6,0,2.6,0,2.6,2.7V172
	c0,0.6,0.1,1.3,0.1,2l0.5,0.1c0.5-0.8,0.9-1.6,1.4-2.4c8.3-12.8,19.9-21.1,34.5-25.4c5.8-1.7,11.7-2.6,17.7-2.7
	c11.4-0.3,22.5,0.9,33.3,4.7c11.7,4,21.6,12.2,27.8,22.9c5.2,8.8,8,18.4,9.6,28.4c1.1,6.2,1.7,12.4,1.9,18.7
	c0.3,26.6,0.4,53.3,0.5,79.9C337.9,310.5,337.9,322.8,337.9,334.9z"/>
</svg>
