<svg id="svg3678" xmlns="http://www.w3.org/2000/svg" viewBox="0 0 384.67 384.68"><defs><style>.cls-1{fill:#fff;}</style></defs><title>ISUEE_ICON</title><circle class="cls-1" cx="192.33" cy="192.34" r="169.71"/><path d="M200.31,99.47a97.84,97.84,0,1,0,96.92,98.76A97.84,97.84,0,0,0,200.31,99.47Zm-1.39,147.37a49.54,49.54,0,1,1,50-49.07A49.54,49.54,0,0,1,198.92,246.84Z" transform="translate(-5.67 -5.66)"/><path d="M198,5.67h-.92v0H5.67V198C5.67,304.23,91.78,390.34,198,390.34S390.33,304.23,390.33,198,304.22,5.67,198,5.67Zm.14,324.46A133.54,133.54,0,1,1,332.93,197.87,133.55,133.55,0,0,1,198.14,330.13Z" transform="translate(-5.67 -5.66)"/></svg>