<?xml version="1.0" encoding="utf-8"?>
<!-- Generator: Adobe Illustrator 25.2.3, SVG Export Plug-In . SVG Version: 6.00 Build 0)  -->
<svg version="1.1" id="Livello_1" xmlns:xodm="http://www.corel.com/coreldraw/odm/2003"
	 xmlns="http://www.w3.org/2000/svg" xmlns:xlink="http://www.w3.org/1999/xlink" x="0px" y="0px" viewBox="0 0 32 32"
	 style="enable-background:new 0 0 32 32;" xml:space="preserve">
<g>
	<path d="M0,0v32h32V0H0z M22.1,28.6c-0.3,0.4-1.5,0.5-3,0.2c-2.3-0.4-3.7-1.8-7.1-6.9c-1.2-1.7-1.2-1.7-2.3-1.8
		c-1.7-0.1-1.5-0.4-1.5,3.2c0.1,4.1,0,4,2.4,4.4c0.6,0.1,0.7,0.1,0.7,0.5c0,0.4,0,0.4-4.2,0.4c-3.9,0-4.2,0-4.3-0.2
		c-0.2-0.5,0.1-0.7,0.9-0.8c1-0.2,1.5-0.6,1.6-1.3c0.1-0.3,0.1-3.7,0-7.7c0-8.3,0-7.9-1.5-8.2c-1-0.2-1.3-0.4-1.1-0.8
		C2.8,9.4,3,9.4,7.4,9.3c6.5-0.1,7.7,0.1,9.5,1.6c1.8,1.6,2.1,4.1,0.6,6.2c-0.6,0.9-1.9,1.9-2.9,2.3c-0.5,0.2-0.8,0.4-0.8,0.4
		c0,0.2,1.5,2.3,2.4,3.4c2.4,3,3.8,4.1,5.1,4.5C22.1,28,22.3,28.2,22.1,28.6z M29.3,9.5c-0.1,2.1-0.7,3.2-2.1,3.8
		c-0.9,0.4-2.2,0.5-3.1,0.4c-2.5-0.5-3.3-2-3.2-5.9c0.1-2.2,0.2-2.8,1.1-3.7c1.5-1.6,5.1-1.4,6.5,0.3c0.6,0.7,0.5,0.9-0.3,1.2
		c-0.6,0.2-0.6,0.2-1.2-0.4c-1.4-1.3-3.7-0.8-4.1,0.9c-0.2,0.8-0.2,3.9,0,4.7c0.6,2,3.9,2,4.5,0c0.4-1.3,0.3-1.4-1.3-1.5
		c-0.8,0-0.8,0-0.8-0.7c0-0.6,0-0.6,1.8-0.7C29.4,7.9,29.4,7.8,29.3,9.5z"/>
	<path d="M13.3,11.2c-0.8-0.3-1-0.4-3-0.4c-2.1,0-2.1,0-2.2,3.7c0,2,0,3.8,0,3.9c0.1,0.3,3.8,0.2,4.7-0.2
		C16.1,16.9,16.3,12.5,13.3,11.2z"/>
</g>
</svg>
