<svg id="svg3678" xmlns="http://www.w3.org/2000/svg" viewBox="0 0 393.33 393.12"><defs><style>.cls-1{fill:#6bc7e5;}.cls-2{fill:#53bee1;}.cls-3{fill:#8ad3eb;}.cls-4{fill:#c3e8f4;}.cls-5{fill:#fefefe;}</style></defs><title>Ske_LOGO</title><path class="cls-1" d="M205.63,1.62a9.87,9.87,0,0,1-3.16-.18h3.15C205.76,1.49,205.77,1.55,205.63,1.62Z" transform="translate(-1.33 -1.44)"/><path class="cls-2" d="M193.43,1.44a3.22,3.22,0,0,1-1.79.17c-.13-.08-.12-.13,0-.17Z" transform="translate(-1.33 -1.44)"/><path class="cls-3" d="M191.66,1.44a1,1,0,0,1,0,.17h-1.37c-.14-.06-.13-.12,0-.16Z" transform="translate(-1.33 -1.44)"/><path class="cls-4" d="M190.29,1.44c0,.05,0,.11,0,.16H189.1a.86.86,0,0,1,0-.16Z" transform="translate(-1.33 -1.44)"/><path class="cls-4" d="M205.63,1.62a.55.55,0,0,1,0-.18h1.17c0,.05,0,.11,0,.16Z" transform="translate(-1.33 -1.44)"/><path d="M193.43,1.44h9a21,21,0,0,0,3.07.1h1.15a145.19,145.19,0,0,1,26.79,2.59,196.6,196.6,0,0,1,29,7.62,199.53,199.53,0,0,1,19.53,8,196.72,196.72,0,0,1,27.14,15.58A189.38,189.38,0,0,1,325.26,47.6c4.26,3.63,8.4,7.4,12.34,11.37a202.13,202.13,0,0,1,16.6,19A195.78,195.78,0,0,1,369.5,101,197.87,197.87,0,0,1,383,130.12a195.5,195.5,0,0,1,9.75,38.08q1,6.31,1.47,12.67c.28,3.4.28,6.81.38,10.21.11,3.67.13,7.33.08,11-.05,3.88,0,7.77-.33,11.63a199.73,199.73,0,0,1-3.84,26.21,193.15,193.15,0,0,1-5.69,20.73,199.67,199.67,0,0,1-24.26,48.61,192.84,192.84,0,0,1-12.47,16.29c-3.38,3.95-6.88,7.81-10.56,11.48a197.72,197.72,0,0,1-19.84,17.41A200.89,200.89,0,0,1,292.16,371a195,195,0,0,1-34.72,14.83A190.59,190.59,0,0,1,225.78,393a140.72,140.72,0,0,1-16.15,1.38c-5.78.13-11.56.23-17.34.16-4.24-.06-8.49-.07-12.71-.43-5.8-.5-11.57-1.32-17.3-2.36a193.9,193.9,0,0,1-29-7.64,202.44,202.44,0,0,1-19.08-7.8,196.16,196.16,0,0,1-21.43-11.75,188,188,0,0,1-16.58-11.74q-6.81-5.4-13.15-11.35a196.32,196.32,0,0,1-15.21-16,193.38,193.38,0,0,1-15.68-21.12c-3-4.68-5.79-9.5-8.41-14.41a193.17,193.17,0,0,1-10.6-23.64c-2.19-5.86-4-11.83-5.65-17.88a195,195,0,0,1-4.63-23.19c-.56-4.15-1-8.3-1.21-12.5q-.36-10.16-.24-20.33c0-4.29,0-8.6.43-12.88.51-5.77,1.31-11.51,2.35-17.21a193,193,0,0,1,7.44-28.48A202.62,202.62,0,0,1,19.66,114a197.26,197.26,0,0,1,25-39.83q4.66-5.7,9.68-11.09,3.54-3.83,7.3-7.42Q67.48,50.09,73.78,45c4.7-3.82,9.56-7.44,14.59-10.81,4.79-3.2,9.73-6.17,14.77-9A198.2,198.2,0,0,1,127.8,13.77a194.61,194.61,0,0,1,40-10.54,107.85,107.85,0,0,1,15.32-1.51c2,0,4-.17,6.06-.18h2.45A6.79,6.79,0,0,0,193.43,1.44Z" transform="translate(-1.33 -1.44)"/><path class="cls-5" d="M296.12,136.75,284.38,143Q240.67,166.14,197,189.32a1.92,1.92,0,0,1-2.06,0q-46.62-24.77-93.27-49.48l-5.74-3a2.33,2.33,0,0,1,1-.75l98.17-56.71a1.37,1.37,0,0,1,1.58,0q49.24,28.47,98.52,56.91C295.48,136.35,295.72,136.51,296.12,136.75Z" transform="translate(-1.33 -1.44)"/><path class="cls-5" d="M180.86,314.85l-7.37-4.25q-38.09-22-76.17-43.94a2,2,0,0,1-1.18-2.05q0-47.9,0-95.78v-1.26c.42-.1.67.16,1,.31q41.45,22.38,82.89,44.75a1.39,1.39,0,0,1,.87,1.41q0,49.91,0,99.81Z" transform="translate(-1.33 -1.44)"/><path class="cls-5" d="M212,314.73a1.63,1.63,0,0,1-.12-1q0-49.61,0-99.22a1.44,1.44,0,0,1,.87-1.51q41.25-22.25,82.46-44.53c1-.56,1-.56,1,.66q0,48,0,96a1.68,1.68,0,0,1-1,1.65l-82.37,47.54C212.61,314.45,212.32,314.58,212,314.73Z" transform="translate(-1.33 -1.44)"/></svg>